<svg width="549" height="397" viewBox="0 0 549 397" fill="none" xmlns="http://www.w3.org/2000/svg">
<g clip-path="url(#clip0_338_333)">
<path d="M431.486 35.7217C430.1 25.5439 428.36 14.6166 421.186 7.26947C418.91 4.93824 416.185 3.09241 413.176 1.84325C410.168 0.594101 406.938 -0.0325003 403.68 0.00123197C400.423 0.0349643 397.207 0.728338 394.224 2.03953C391.242 3.35073 388.556 5.25259 386.329 7.63048C381.106 13.205 378.8 21.0324 378.589 28.6702C378.378 36.308 380.078 43.861 381.964 51.265C391.944 51.4645 401.851 49.5134 411.011 45.5442C413.256 44.4477 415.585 43.5329 417.976 42.8084C420.396 42.192 422.121 43.7429 424.372 44.8244L425.608 42.4568C426.62 44.3405 429.752 43.7821 430.888 41.971C432.024 40.1599 431.775 37.8404 431.486 35.7217Z" fill="#2F2E41"/>
<path d="M389.801 78.6952L392.691 63.9244L371.023 54.5384L332.287 35.9692C332.017 34.2461 331.23 32.6457 330.031 31.3796C328.833 30.1135 327.278 29.2413 325.573 28.8786C323.868 28.5158 322.093 28.6795 320.483 29.348C318.873 30.0165 317.504 31.1583 316.557 32.6223C315.609 34.0863 315.129 35.8037 315.178 37.5471C315.227 39.2905 315.804 40.9778 316.833 42.3859C317.862 43.794 319.293 44.8564 320.938 45.4327C322.583 46.0089 324.365 46.0719 326.046 45.6131L362.93 68.3884L389.801 78.6952Z" fill="#FFB8B8"/>
<path d="M375.256 76.1961L390.949 60.1437L391.26 60.2382C391.455 60.2973 410.953 66.2451 423.384 72.2893C424.789 72.9203 426.039 73.8504 427.048 75.0147C428.057 76.179 428.8 77.5495 429.225 79.0305C429.843 81.1043 429.843 83.3137 429.225 85.3874C428.606 87.4612 427.395 89.309 425.742 90.704C424.042 92.2265 421.94 93.227 419.687 93.5859C417.434 93.9448 415.125 93.6469 413.037 92.7278L375.256 76.1961Z" fill="#C2A410"/>
<path d="M375.207 146.77L419.337 158.569L428.249 116.856L387.744 104.311L375.207 146.77Z" fill="#FFB8B8"/>
<path d="M424.277 135.448L381.167 125.528L372.912 105.509C372.241 102.651 372.404 99.6606 373.382 96.8932C374.361 94.1257 376.114 91.6979 378.432 89.899L394.183 76.5935L402.626 65.8011L401.707 60.0817C401.543 58.9386 401.782 57.774 402.385 56.789C402.988 55.8041 403.915 55.0607 405.007 54.6874L416.26 50.6495C417.505 50.1841 418.879 50.209 420.105 50.7193C421.332 51.2296 422.318 52.187 422.866 53.3979L424.058 56.1593C424.058 56.1593 429.147 58.5553 432.016 59.9031C433.492 60.5747 434.81 61.5508 435.883 62.7673C436.956 63.9839 437.761 65.4135 438.244 66.9626C442.634 81.162 441.451 96.5021 434.933 109.859L424.277 135.448Z" fill="#C2A410"/>
<path d="M40.8921 347.962L20.0484 342.381C16.9837 331.465 16.6283 319.966 19.0133 308.881C28.1068 326.867 52.5291 330.258 66.9969 344.284C71.4758 348.693 74.9056 354.055 77.0323 359.97C79.1589 365.886 79.9278 372.205 79.2821 378.459L84.2752 392.933C74.1402 392.532 64.2125 389.937 55.1762 385.327C46.1399 380.717 38.2098 374.202 31.9322 366.23C28.4548 361.723 25.5585 356.796 23.3116 351.565C32.0334 350.286 40.8921 347.962 40.8921 347.962Z" fill="#F2F2F2"/>
<path d="M299.85 397H95.555C90.08 396.994 84.8309 394.815 80.9594 390.941C77.088 387.067 74.9103 381.815 74.9041 376.337V105.667C74.9103 100.188 77.088 94.9362 80.9595 91.0624C84.8309 87.1886 90.08 85.0096 95.5551 85.0034H299.85C305.325 85.0096 310.574 87.1886 314.446 91.0624C318.317 94.9362 320.495 100.188 320.501 105.667V376.337C320.495 381.815 318.317 387.067 314.446 390.941C310.574 394.815 305.325 396.994 299.85 397Z" fill="#E6E6E6"/>
<path d="M221.877 380.246H109.915C104.93 380.24 100.151 378.256 96.6256 374.729C93.1006 371.202 91.1177 366.419 91.1121 361.431V120.572C91.1177 115.584 93.1006 110.802 96.6257 107.274C100.151 103.747 104.93 101.763 109.915 101.758H285.489C290.475 101.763 295.254 103.747 298.779 107.274C302.304 110.802 304.287 115.584 304.293 120.572V297.781C304.268 319.645 295.577 340.605 280.126 356.065C264.676 371.525 243.727 380.221 221.877 380.246Z" fill="white"/>
<path d="M267.975 147.998H127.43C126.828 147.999 126.232 147.881 125.676 147.651C125.119 147.421 124.614 147.084 124.187 146.659C123.761 146.234 123.423 145.728 123.192 145.172C122.961 144.616 122.842 144.02 122.841 143.418C122.84 142.815 122.958 142.219 123.188 141.662C123.417 141.105 123.754 140.599 124.179 140.173C124.604 139.746 125.109 139.408 125.665 139.177C126.221 138.946 126.817 138.826 127.419 138.825H267.975C269.19 138.824 270.357 139.306 271.218 140.165C272.078 141.024 272.563 142.19 272.564 143.406C272.566 144.622 272.084 145.79 271.226 146.651C270.367 147.512 269.202 147.997 267.986 147.998H267.975Z" fill="#C2A410"/>
<path d="M267.975 166.121H127.43C126.214 166.121 125.049 165.638 124.189 164.778C123.329 163.917 122.846 162.751 122.846 161.534C122.846 160.318 123.329 159.151 124.189 158.291C125.049 157.431 126.214 156.948 127.43 156.948H267.975C269.191 156.948 270.356 157.431 271.216 158.291C272.076 159.151 272.559 160.318 272.559 161.534C272.559 162.751 272.076 163.917 271.216 164.778C270.356 165.638 269.191 166.121 267.975 166.121Z" fill="#C2A410"/>
<path d="M188.353 184.244H127.43C126.214 184.244 125.048 183.761 124.189 182.901C123.329 182.04 122.846 180.874 122.846 179.657C122.846 178.441 123.329 177.274 124.189 176.414C125.048 175.554 126.214 175.071 127.43 175.071H188.353C189.569 175.071 190.734 175.554 191.594 176.414C192.454 177.274 192.937 178.441 192.937 179.657C192.937 180.874 192.454 182.04 191.594 182.901C190.734 183.761 189.569 184.244 188.353 184.244Z" fill="#C2A410"/>
<path d="M267.975 222.2H127.43C126.215 222.202 125.048 221.72 124.187 220.861C123.327 220.002 122.842 218.836 122.841 217.62C122.839 216.403 123.321 215.236 124.179 214.375C125.038 213.514 126.203 213.029 127.419 213.027H267.975C269.19 213.026 270.357 213.508 271.218 214.367C272.078 215.226 272.563 216.392 272.564 217.608C272.566 218.824 272.084 219.992 271.226 220.853C270.367 221.714 269.202 222.199 267.986 222.2H267.975Z" fill="#E4E4E4"/>
<path d="M267.975 240.323H127.43C126.214 240.323 125.049 239.84 124.189 238.98C123.329 238.12 122.846 236.953 122.846 235.736C122.846 234.52 123.329 233.353 124.189 232.493C125.049 231.633 126.214 231.15 127.43 231.15H267.975C269.191 231.15 270.356 231.633 271.216 232.493C272.076 233.353 272.559 234.52 272.559 235.736C272.559 236.953 272.076 238.12 271.216 238.98C270.356 239.84 269.191 240.323 267.975 240.323Z" fill="#E4E4E4"/>
<path d="M188.353 258.446H127.43C126.214 258.446 125.048 257.963 124.189 257.103C123.329 256.242 122.846 255.076 122.846 253.859C122.846 252.643 123.329 251.476 124.189 250.616C125.048 249.756 126.214 249.273 127.43 249.273H188.353C189.569 249.273 190.734 249.756 191.594 250.616C192.454 251.476 192.937 252.643 192.937 253.859C192.937 255.076 192.454 256.242 191.594 257.103C190.734 257.963 189.569 258.446 188.353 258.446Z" fill="#E4E4E4"/>
<path d="M267.975 296.402H127.43C126.215 296.404 125.048 295.922 124.187 295.063C123.327 294.204 122.842 293.038 122.841 291.822C122.839 290.605 123.321 289.438 124.179 288.577C125.038 287.716 126.203 287.231 127.419 287.229H267.975C269.19 287.228 270.357 287.71 271.218 288.569C272.078 289.428 272.563 290.594 272.564 291.81C272.566 293.026 272.084 294.194 271.226 295.055C270.367 295.916 269.202 296.401 267.986 296.402H267.975Z" fill="#E4E4E4"/>
<path d="M267.975 314.525H127.43C126.214 314.525 125.049 314.042 124.189 313.182C123.329 312.321 122.846 311.155 122.846 309.938C122.846 308.722 123.329 307.555 124.189 306.695C125.049 305.835 126.214 305.352 127.43 305.352H267.975C269.191 305.352 270.356 305.835 271.216 306.695C272.076 307.555 272.559 308.722 272.559 309.938C272.559 311.155 272.076 312.321 271.216 313.182C270.356 314.042 269.191 314.525 267.975 314.525Z" fill="#E4E4E4"/>
<path d="M188.353 332.648H127.43C126.216 332.646 125.052 332.161 124.195 331.302C123.337 330.442 122.855 329.276 122.855 328.061C122.855 326.847 123.337 325.681 124.195 324.821C125.052 323.961 126.216 323.477 127.43 323.475H188.353C189.567 323.477 190.731 323.961 191.588 324.821C192.446 325.681 192.928 326.847 192.928 328.061C192.928 329.276 192.446 330.442 191.588 331.302C190.731 332.161 189.567 332.646 188.353 332.648Z" fill="#E4E4E4"/>
<path d="M310.413 149.892C343.323 149.892 370.002 123.197 370.002 90.2676C370.002 57.3379 343.323 30.6431 310.413 30.6431C277.503 30.6431 250.824 57.3379 250.824 90.2676C250.824 123.197 277.503 149.892 310.413 149.892Z" fill="#C2A410"/>
<path opacity="0.16" d="M310.413 141.632C295.337 141.63 280.822 135.91 269.795 125.624C258.767 115.339 252.046 101.252 250.987 86.2048C250.89 87.5929 250.824 88.9892 250.824 90.4019C250.829 106.211 257.11 121.371 268.285 132.548C279.459 143.725 294.613 150.004 310.413 150.004C326.213 150.004 341.366 143.725 352.541 132.548C363.715 121.371 369.996 106.211 370.002 90.4019C370.002 88.9892 369.935 87.5929 369.839 86.2048C368.779 101.252 362.058 115.339 351.031 125.624C340.003 135.91 325.489 141.63 310.413 141.632Z" fill="#231F20"/>
<path d="M310.413 119.405C308.434 119.402 306.537 118.615 305.138 117.215C303.739 115.815 302.952 113.917 302.95 111.938V68.7318C302.949 67.7506 303.141 66.7788 303.516 65.8719C303.89 64.9651 304.44 64.141 305.133 63.4468C305.826 62.7526 306.649 62.2018 307.555 61.8261C308.461 61.4504 309.432 61.257 310.413 61.257C311.393 61.257 312.364 61.4504 313.27 61.8261C314.176 62.2018 314.999 62.7526 315.692 63.4468C316.385 64.141 316.935 64.9651 317.309 65.8719C317.684 66.7788 317.876 67.7506 317.875 68.7318V111.938C317.873 113.917 317.086 115.815 315.687 117.215C314.288 118.615 312.391 119.402 310.413 119.405Z" fill="white"/>
<path d="M281.36 90.335C281.362 88.3553 282.149 86.4573 283.548 85.0574C284.947 83.6575 286.844 82.8701 288.823 82.8678H332.003C332.983 82.8668 333.955 83.0591 334.861 83.4339C335.767 83.8087 336.591 84.3585 337.285 85.052C337.979 85.7455 338.529 86.569 338.904 87.4754C339.28 88.3819 339.473 89.3535 339.473 90.3348C339.473 91.316 339.28 92.2876 338.904 93.1941C338.529 94.1005 337.979 94.924 337.285 95.6175C336.591 96.311 335.767 96.8608 334.861 97.2356C333.955 97.6104 332.983 97.8028 332.003 97.8018H288.823C286.844 97.7996 284.947 97.0122 283.548 95.6124C282.149 94.2126 281.362 92.3147 281.36 90.335Z" fill="white"/>
<path d="M399.99 103.004L387.31 94.9073L370.65 111.649L339.202 140.923C337.501 140.544 335.725 140.691 334.108 141.343C332.492 141.996 331.112 143.125 330.15 144.58C329.189 146.035 328.692 147.747 328.724 149.491C328.757 151.235 329.318 152.928 330.333 154.346C331.348 155.763 332.769 156.84 334.408 157.432C336.048 158.024 337.829 158.104 339.515 157.662C341.201 157.219 342.713 156.275 343.851 154.954C344.989 153.633 345.699 151.997 345.888 150.263L380.569 124.254L399.99 103.004Z" fill="#FFB8B8"/>
<path d="M392.342 115.634L383.156 95.1456L383.357 94.8912C383.484 94.7314 396.152 78.7512 406.323 69.3886C407.424 68.3113 408.746 67.4874 410.199 66.9741C411.651 66.4609 413.197 66.2707 414.73 66.417C416.885 66.6006 418.94 67.4095 420.642 68.7444C422.344 70.0794 423.62 71.8824 424.313 73.9323C425.107 76.0721 425.268 78.3955 424.777 80.6246C424.286 82.8537 423.165 84.8943 421.546 86.5023L392.342 115.634Z" fill="#C2A410"/>
<path d="M400.642 48.2918C411.652 48.2918 420.577 39.3613 420.577 28.345C420.577 17.3287 411.652 8.39825 400.642 8.39825C389.632 8.39825 380.707 17.3287 380.707 28.345C380.707 39.3613 389.632 48.2918 400.642 48.2918Z" fill="#FFB8B8"/>
<path d="M369.67 382.713H361.429L357.506 350.907H369.67V382.713Z" fill="#FFB8B8"/>
<path d="M374.019 397H368.109L367.055 391.417L364.353 397H348.678C347.927 397 347.195 396.76 346.59 396.314C345.984 395.869 345.537 395.241 345.314 394.524C345.09 393.806 345.102 393.035 345.347 392.325C345.592 391.614 346.057 391 346.676 390.573L359.193 381.923V376.279L372.359 377.065L374.019 397Z" fill="#2F2E41"/>
<path d="M472.958 375.707L465.301 378.757L449.901 350.658L461.202 346.156L472.958 375.707Z" fill="#FFB8B8"/>
<path d="M482.281 387.372L476.79 389.559L473.746 384.762L473.299 390.949L458.736 396.75C458.038 397.028 457.269 397.075 456.542 396.885C455.815 396.696 455.168 396.278 454.695 395.694C454.222 395.11 453.948 394.39 453.913 393.639C453.878 392.888 454.084 392.145 454.5 391.52L462.933 378.851L460.846 373.607L473.37 369.465L482.281 387.372Z" fill="#2F2E41"/>
<path d="M372.849 368.102H355.802L360.513 287.965L357.069 233.648L357.076 233.604L369.921 155.742C370.932 149.602 373.662 143.875 377.796 139.226L377.952 139.05L420.94 149.673L425.262 159.534C440.021 168.317 444.682 217.845 444.873 219.955L451.121 281.696L466.405 357.366L455.642 363.165L455.462 362.806L421.483 295.198L400.024 223.901L386.281 288.07L372.849 368.102Z" fill="#2F2E41"/>
<path d="M425.33 29.2837C424.625 24.6473 423.888 19.972 422.231 15.6063C420.573 11.2406 417.902 7.1515 414.07 4.6784C408.003 0.762859 400.148 1.51803 393.346 3.77035C388.085 5.51221 382.95 8.15968 379.241 12.4159C375.531 16.6722 373.447 22.7454 374.827 28.3106C382.083 26.5953 389.339 24.8799 396.595 23.1646L395.801 23.7262C398.183 24.9149 400.264 26.631 401.884 28.7444C403.505 30.8578 404.623 33.3128 405.154 35.9232C405.673 38.5652 405.598 41.2897 404.936 43.8994C404.273 46.5091 403.039 48.9388 401.323 51.0129C406.272 49.2563 411.22 47.4999 416.169 45.7434C419.223 44.6592 422.492 43.41 424.304 40.6291C426.404 37.4049 425.916 33.1315 425.33 29.2837Z" fill="#2F2E41"/>
</g>
<defs>
<clipPath id="clip0_338_333">
<rect width="549" height="397" fill="white"/>
</clipPath>
</defs>
</svg>
