<svg width="740" height="789" viewBox="0 0 740 789" fill="none" xmlns="http://www.w3.org/2000/svg">
<path fill-rule="evenodd" clip-rule="evenodd" d="M295.875 49.3125H591.75V394.5C591.751 398.862 590.594 403.147 588.398 406.917C586.203 410.686 583.046 413.805 579.25 415.956C575.455 418.107 571.157 419.212 566.795 419.16C562.433 419.107 558.163 417.897 554.421 415.655L443.813 349.28L333.205 415.704C329.459 417.949 325.184 419.158 320.818 419.209C316.452 419.26 312.15 418.15 308.353 415.993C304.556 413.837 301.4 410.71 299.208 406.934C297.016 403.158 295.865 398.867 295.875 394.5V49.3125Z" fill="#C2A410"/>
<path d="M147.938 0H641.062C667.219 0 692.305 10.3908 710.801 28.8866C729.297 47.3824 739.688 72.468 739.688 98.625V690.375C739.688 716.532 729.297 741.618 710.801 760.113C692.305 778.609 667.219 789 641.062 789H147.938C121.781 789 96.6949 778.609 78.1991 760.113C59.7033 741.618 49.3125 716.532 49.3125 690.375V641.062H98.625V690.375C98.625 703.453 103.82 715.996 113.068 725.244C122.316 734.492 134.859 739.688 147.938 739.688H641.062C654.141 739.688 666.684 734.492 675.932 725.244C685.18 715.996 690.375 703.453 690.375 690.375V98.625C690.375 85.5465 685.18 73.0037 675.932 63.7558C666.684 54.5079 654.141 49.3125 641.062 49.3125H147.938C134.859 49.3125 122.316 54.5079 113.068 63.7558C103.82 73.0037 98.625 85.5465 98.625 98.625V147.938H49.3125V98.625C49.3125 72.468 59.7033 47.3824 78.1991 28.8866C96.6949 10.3908 121.781 0 147.938 0V0Z" fill="#C2A410"/>
<path d="M49.3125 246.562V221.906C49.3125 215.367 51.9102 209.096 56.5341 204.472C61.1581 199.848 67.4295 197.25 73.9688 197.25C80.508 197.25 86.7794 199.848 91.4034 204.472C96.0273 209.096 98.625 215.367 98.625 221.906V246.562H123.281C129.82 246.562 136.092 249.16 140.716 253.784C145.34 258.408 147.938 264.68 147.938 271.219C147.938 277.758 145.34 284.029 140.716 288.653C136.092 293.277 129.82 295.875 123.281 295.875H24.6562C18.117 295.875 11.8456 293.277 7.22165 288.653C2.59771 284.029 0 277.758 0 271.219C0 264.68 2.59771 258.408 7.22165 253.784C11.8456 249.16 18.117 246.562 24.6562 246.562H49.3125ZM49.3125 394.5V369.844C49.3125 363.305 51.9102 357.033 56.5341 352.409C61.1581 347.785 67.4295 345.188 73.9688 345.188C80.508 345.188 86.7794 347.785 91.4034 352.409C96.0273 357.033 98.625 363.305 98.625 369.844V394.5H123.281C129.82 394.5 136.092 397.098 140.716 401.722C145.34 406.346 147.938 412.617 147.938 419.156C147.938 425.695 145.34 431.967 140.716 436.591C136.092 441.215 129.82 443.812 123.281 443.812H24.6562C18.117 443.812 11.8456 441.215 7.22165 436.591C2.59771 431.967 0 425.695 0 419.156C0 412.617 2.59771 406.346 7.22165 401.722C11.8456 397.098 18.117 394.5 24.6562 394.5H49.3125ZM49.3125 542.438V517.781C49.3125 511.242 51.9102 504.971 56.5341 500.347C61.1581 495.723 67.4295 493.125 73.9688 493.125C80.508 493.125 86.7794 495.723 91.4034 500.347C96.0273 504.971 98.625 511.242 98.625 517.781V542.438H123.281C129.82 542.438 136.092 545.035 140.716 549.659C145.34 554.283 147.938 560.555 147.938 567.094C147.938 573.633 145.34 579.904 140.716 584.528C136.092 589.152 129.82 591.75 123.281 591.75H24.6562C18.117 591.75 11.8456 589.152 7.22165 584.528C2.59771 579.904 0 573.633 0 567.094C0 560.555 2.59771 554.283 7.22165 549.659C11.8456 545.035 18.117 542.438 24.6562 542.438H49.3125Z" fill="#C2A410"/>
</svg>
