<svg width="421" height="460" viewBox="0 0 421 460" fill="none" xmlns="http://www.w3.org/2000/svg">
<path fill-rule="evenodd" clip-rule="evenodd" d="M332.203 -221.208C389.869 -238.541 401.82 -125.69 435.326 -75.6589C454.857 -46.496 478.428 -20.1403 489.226 13.2563C498.432 41.7313 472.292 79.968 492.716 101.841C543.548 156.281 697.762 145.522 680.346 217.939C662.828 290.785 508.109 182.98 459.494 239.988C413.186 294.29 534.595 401.599 482.305 450.168C438.769 490.606 382.343 390.108 332.203 358.221C304.744 340.757 281.321 319.097 252.487 304.01C224.766 289.505 195.282 281.692 165.82 271.164C110.34 251.338 13.0496 271.745 0.880466 214.1C-11.4143 155.859 108.798 148.214 127.968 91.8622C144.224 44.0795 54.1436 -19.638 91.8216 -53.2205C133.751 -90.5925 209.121 10.6695 255.16 -21.5043C314.387 -62.8937 263.006 -200.408 332.203 -221.208Z" fill="#F9F6E7"/>
</svg>
