<svg width="284" height="620" viewBox="0 0 284 620" fill="none" xmlns="http://www.w3.org/2000/svg">
<path fill-rule="evenodd" clip-rule="evenodd" d="M93.2398 613.039C43.4046 646.836 -1.77191 542.733 -48.7152 505.023C-76.0784 483.042 -106.457 464.948 -126.754 436.314C-144.061 411.899 -130.562 367.592 -156.596 352.833C-221.391 316.102 -365.316 372.519 -370.372 298.209C-375.457 223.459 -195.566 280.02 -166.24 211.076C-138.305 145.404 -286.264 79.3474 -250.907 17.356C-221.468 -34.2586 -137.551 44.7469 -80.1671 60.1673C-48.7398 68.6124 -19.9079 82.2705 12.1194 88.0366C42.9108 93.5802 73.3821 92.2118 104.644 93.4402C163.515 95.7535 250.239 47.1658 279.102 98.5272C308.263 150.419 195.848 193.689 194.421 253.196C193.211 303.654 298.231 337.492 272.33 380.812C243.507 429.019 141.287 354.954 106.986 399.432C62.861 456.649 153.041 572.484 93.2398 613.039Z" fill="#F9F6E7"/>
</svg>
