<svg width="555" height="441" viewBox="0 0 555 441" fill="none" xmlns="http://www.w3.org/2000/svg">
<g clip-path="url(#clip0_67_5)">
<path opacity="0.1" d="M325.321 74.5268C290.222 73.3066 256.787 61.9773 224.866 49.5797C192.944 37.1821 161.327 23.4449 127.068 16.8773C105.033 12.6526 79.8308 12.056 62.0804 23.8679C44.9916 35.2568 39.4707 54.862 36.5041 73.0734C34.2698 86.7726 32.9573 101.188 39.0802 114.014C43.3266 122.919 50.8704 130.403 56.0822 138.961C74.234 168.637 61.4079 205.233 41.7376 234.21C32.518 247.806 21.807 260.784 14.6917 275.243C7.57634 289.701 4.27898 306.291 10.5049 321.053C16.682 335.696 31.3954 346.673 47.329 354.401C79.7006 370.101 117.832 374.592 155.041 377.135C237.383 382.77 320.158 380.33 402.717 377.889C433.272 376.984 463.957 376.067 494.013 371.343C510.705 368.718 527.935 364.559 540.056 354.504C555.437 341.743 559.249 320.131 548.945 304.133C531.65 277.293 483.866 270.627 471.761 241.819C465.112 225.967 471.945 208.308 481.61 193.601C502.348 162.059 537.106 134.384 538.939 98.3296C540.197 73.5615 523.483 48.7662 497.646 37.0465C470.568 24.7194 433.006 26.2813 413.038 46.6132C392.462 67.5633 356.31 75.6006 325.321 74.5268Z" fill="#C2A410"/>
<path d="M236.157 374.478L50.5287 373.572L32.0841 330.311L97.3046 325.576L85.9374 278.144L214.936 261.424L91.4094 218.482L102.321 215.89L300.949 248.294L290.01 322.317L274.375 362.997L236.157 374.478Z" fill="#C2A410"/>
<path d="M53.376 355.453C53.376 355.453 64.7649 353.631 71.5982 361.679C71.5982 361.679 66.5871 365.627 55.8056 360.161L53.376 355.453Z" fill="#C2A410"/>
<path d="M52.1829 355.274C52.1829 355.274 44.9157 364.217 48.4951 374.174C48.4951 374.174 54.4173 371.804 55.0627 359.732L52.1829 355.274Z" fill="#C2A410"/>
<path d="M45.6532 340.572C45.6532 340.572 50.2088 332.214 68.431 343.912C68.431 343.912 66.0014 349.531 57.9532 349.075C49.9051 348.62 47.7791 344.975 45.6532 340.572Z" fill="#C2A410"/>
<path d="M44.4764 339.97C44.4764 339.97 35.0236 338.885 34.1071 360.524C34.1071 360.524 40.0998 361.766 44.3571 354.922C48.6143 348.078 46.868 344.238 44.4764 339.97Z" fill="#C2A410"/>
<path d="M38.9718 322.707C38.9718 322.707 44.2866 307.978 63.5718 318.455C63.5718 318.455 59.1681 331.97 40.9459 327.718L38.9718 322.707Z" fill="#C2A410"/>
<path d="M33.0496 300.689C33.0496 300.689 43.0718 285.807 60.8385 299.604C60.8385 299.604 54.6126 313.574 34.5681 305.982L33.0496 300.689Z" fill="#C2A410"/>
<path d="M30.9236 279.733C30.9236 279.733 42.6162 266.061 60.2093 279.733C60.2093 279.733 49.1241 291.73 30.9236 283.226V279.733Z" fill="#C2A410"/>
<path d="M29.1013 259.38C29.1013 259.38 40.9458 245.105 57.8014 258.62C57.8014 258.62 44.4384 271.224 29.1013 262.72V259.38Z" fill="#C2A410"/>
<path d="M30.1643 241.309C30.1643 241.309 42.6379 222.935 58.4088 235.387C58.4088 235.387 45.0458 251.18 30.1643 244.802V241.309Z" fill="#C2A410"/>
<path d="M33.0496 220.202C33.0496 220.202 46.2607 201.979 61.5977 215.95C61.5977 215.95 45.957 231.742 33.0496 223.542V220.202Z" fill="#C2A410"/>
<path d="M37.4532 201.334C37.4532 201.334 53.094 184.207 66.739 191.03C66.739 191.03 50.442 209.219 36.7699 205.879L37.4532 201.334Z" fill="#C2A410"/>
<path d="M42.9199 183.448C42.9199 183.448 60.9686 162.471 71.4681 169.478C71.4681 169.478 58.1702 185.748 41.64 187.375L42.9199 183.448Z" fill="#C2A410"/>
<path d="M50.8108 162.704C50.8108 162.704 66.6088 145.577 78.1496 149.829C78.1496 149.829 64.6348 167.596 48.6903 168.051L50.8108 162.704Z" fill="#C2A410"/>
<path d="M57.9532 143.3C57.9532 143.3 75.4162 126.9 83.0088 129.785C83.0088 129.785 70.4051 148.007 57.194 146.944L57.9532 143.3Z" fill="#C2A410"/>
<path d="M64.9385 125.381C64.9385 125.381 79.9718 105.787 88.1773 107.305C88.1773 107.305 79.0607 124.774 64.9385 127.371V125.381Z" fill="#C2A410"/>
<path d="M72.5202 101.22C72.5202 101.22 85.8072 86.2031 92.9877 86.2356C92.9877 86.2356 82.499 106.302 71.9724 106.117L72.5202 101.22Z" fill="#C2A410"/>
<path d="M77.0107 85.1348L89.8476 53.8533C89.8476 53.8533 90.4876 82.1303 75.3783 90.9377L77.0107 85.1348Z" fill="#C2A410"/>
<path d="M82.2225 50.6371C82.2225 50.6371 84.3484 24.5131 82.9818 22.3872C82.9818 22.3872 92.158 44.1075 82.1357 62.1779L82.2225 50.6371Z" fill="#C2A410"/>
<path d="M38.4727 322.36C38.4727 322.36 25.164 314.111 16.5464 334.292C16.5464 334.292 28.3908 342.155 40.0401 327.507L38.4727 322.36Z" fill="#C2A410"/>
<path d="M32.6211 299.848C32.6211 299.848 16.297 292.402 8.37903 313.472C8.37903 313.472 20.9882 322.149 34.1071 305.174L32.6211 299.848Z" fill="#C2A410"/>
<path d="M30.1643 280.986C30.1643 280.986 18.4717 267.314 0.87854 280.986C0.87854 280.986 11.9637 292.982 30.1643 284.479V280.986Z" fill="#C2A410"/>
<path d="M28.7 259.38C28.7 259.38 16.8556 245.105 0 258.62C0 258.62 13.363 271.224 28.7 262.72V259.38Z" fill="#C2A410"/>
<path d="M30.1643 241.83C30.1643 241.83 21.8558 221.248 3.79626 230.099C3.79626 230.099 13.5582 248.349 29.4267 245.247L30.1643 241.83Z" fill="#C2A410"/>
<path d="M34.0962 220.099C34.0962 220.099 25.8365 199.159 7.52209 208.867C7.52209 208.867 18.7375 228.06 33.2827 223.331L34.0962 220.099Z" fill="#C2A410"/>
<path d="M39.2158 201.437C39.2158 201.437 35.9618 178.48 20.7766 176.425C20.7766 176.425 23.998 200.635 37.1712 205.575L39.2158 201.437Z" fill="#C2A410"/>
<path d="M43.3049 183.492C43.3049 183.492 42.0359 155.833 29.481 154.867C29.481 154.867 29.904 175.861 41.8894 187.407L43.3049 183.492Z" fill="#C2A410"/>
<path d="M52.1124 161.929C52.1124 161.929 48.3704 138.928 36.3849 136.119C36.3849 136.119 37.8709 158.393 50.9247 167.574L52.1124 161.929Z" fill="#C2A410"/>
<path d="M59.3741 143.489C59.3741 143.489 59.2494 119.529 51.9279 116.01C51.9279 116.01 47.3886 137.703 57.2536 146.548L59.3741 143.489Z" fill="#C2A410"/>
<path d="M65.4971 125.11C65.4971 125.11 64.4721 100.439 56.8903 96.9629C56.8903 96.9629 54.298 116.487 64.3636 126.726L65.4971 125.11Z" fill="#C2A410"/>
<path d="M73.5777 103.189C73.5777 103.189 73.5343 83.1227 68.1219 78.4153C68.1219 78.4153 62.742 100.396 70.7522 107.224L73.5777 103.189Z" fill="#C2A410"/>
<path d="M76.3761 84.1478L71.1101 50.7512C71.1101 50.7512 63.9568 78.1171 76.6256 90.1785L76.3761 84.1478Z" fill="#C2A410"/>
<path d="M77.4011 50.9518C77.4011 50.9518 63.8863 28.4994 64.1629 26.0046C64.1629 26.0046 65.6 49.5363 82.6021 61.256L77.4011 50.9518Z" fill="#C2A410"/>
<path d="M78.9848 44.319C78.9848 44.319 66.2292 12.4301 60.4589 9.84863C60.4589 9.84863 78.6811 19.1116 80.0478 43.4079L78.9848 44.319Z" fill="#C2A410"/>
<path d="M71.9073 106.307L71.0342 106.042C81.7994 70.9367 84.4839 48.5548 78.5997 42.9417L79.2233 42.28C85.4656 48.2023 82.9329 70.3401 71.9073 106.307Z" fill="#444053"/>
<path d="M42.2636 188.503L40.9729 188.042C42.1172 184.826 43.3483 181.561 44.639 178.345C55.8761 150.339 65.4428 124.285 71.5765 104.284L72.6991 103.742C66.5545 123.781 57.156 150.832 45.9081 178.876C44.6228 182.033 43.3971 185.281 42.2636 188.503Z" fill="#444053"/>
<path d="M69.4235 381.724C69.25 381.534 51.8033 361.885 39.6388 328.342C32.5112 308.704 28.5445 288.06 27.8866 267.178C27.0514 241.076 32.5289 211.931 41.9112 185.455L42.9308 186.648C21.8667 246.071 30.2348 296.99 41.3363 327.653C53.3706 360.893 70.6221 380.324 70.7902 380.52L69.4235 381.724Z" fill="#444053"/>
<path d="M342.063 340.008C342.063 340.008 329.768 355.014 339.53 377.699L241.369 420.272L231.949 422.246L227.61 403.265L230.511 379.31V366.218L342.063 340.008Z" fill="#D5D6DB"/>
<path d="M32.0841 330.311L167.948 305.542L347.974 334.221L236.157 374.478L32.0841 330.311Z" fill="#C2A410"/>
<path d="M32.0841 330.311L167.948 305.542L347.974 334.221L236.157 374.478L32.0841 330.311Z" fill="#C2A410"/>
<path d="M32.0842 330.305C32.0842 330.305 19.3774 354.379 34.0203 376.615L235.495 420.272C235.495 420.272 222.989 401.095 236.141 374.478L32.0842 330.305Z" fill="#C2A410"/>
<path opacity="0.1" d="M32.0842 330.305C32.0842 330.305 19.3774 354.379 34.0203 376.615L235.495 420.272C235.495 420.272 222.989 401.095 236.141 374.478L32.0842 330.305Z" fill="black"/>
<path opacity="0.1" d="M38.0877 338.652C38.0877 338.652 30.8259 356.267 38.0877 367.666V338.652Z" fill="black"/>
<path d="M235.495 420.272L347.974 372.276C347.974 372.276 354.265 373.632 350.198 378.242C346.13 382.852 237.665 424.882 237.665 424.882L34.0203 376.615L235.495 420.272Z" fill="#C2A410"/>
<path opacity="0.1" d="M235.495 420.272L347.974 372.276C347.974 372.276 354.265 373.632 350.198 378.242C346.13 382.852 237.665 424.882 237.665 424.882L34.0203 376.615L235.495 420.272Z" fill="black"/>
<path opacity="0.1" d="M226.276 379.326C226.276 379.326 215.429 392.342 226.276 411.866V379.326Z" fill="black"/>
<path opacity="0.1" d="M278.788 379.106L230.136 395.338L230.308 395.852L278.96 379.621L278.788 379.106Z" fill="black"/>
<path opacity="0.1" d="M288.533 377.491L230.121 399.703L230.314 400.21L288.726 377.998L288.533 377.491Z" fill="black"/>
<path opacity="0.1" d="M297.482 377.413L230.447 404.852L230.652 405.354L297.688 377.915L297.482 377.413Z" fill="black"/>
<path opacity="0.1" d="M307.214 375.064L231.229 409.388L231.453 409.882L307.437 375.558L307.214 375.064Z" fill="black"/>
<path opacity="0.1" d="M315.39 375.075L231.831 411.598L232.048 412.095L315.607 375.572L315.39 375.075Z" fill="black"/>
<path opacity="0.1" d="M333.273 372.038L233.091 415.308L233.306 415.805L333.488 372.536L333.273 372.038Z" fill="black"/>
<path opacity="0.3" d="M82.5587 332.957L178.009 312.891L236.157 324.009L157.942 349.227L82.5587 332.957Z" fill="white"/>
<path d="M347.974 334.221C347.974 334.221 352.91 336.211 350.013 339.286C347.117 342.361 236.141 374.478 236.141 374.478L347.974 334.221Z" fill="#C2A410"/>
<path d="M395.911 287.846C395.911 287.846 383.622 302.847 393.383 325.538L295.222 368.111L285.802 370.096L281.463 351.115L284.408 327.165V314.057L395.911 287.846Z" fill="#D5D6DB"/>
<path d="M85.9374 278.144L221.796 253.381L401.828 282.06L290.01 322.317L85.9374 278.144Z" fill="#3A3768"/>
<path d="M85.9157 278.144C85.9157 278.144 73.2035 302.218 87.8464 324.454L289.321 368.111C289.321 368.111 276.821 348.918 289.989 322.311L85.9157 278.144Z" fill="#3A3768"/>
<path opacity="0.1" d="M85.9157 278.144C85.9157 278.144 73.2035 302.218 87.8464 324.454L289.321 368.111C289.321 368.111 276.821 348.918 289.989 322.311L226.276 308.52L85.9157 278.144Z" fill="black"/>
<path opacity="0.1" d="M91.9355 286.49C91.9355 286.49 84.6791 304.1 91.9355 315.505V286.49Z" fill="black"/>
<path d="M289.343 368.111L401.828 320.115C401.828 320.115 408.113 321.471 404.046 326.081C399.978 330.69 291.512 372.721 291.512 372.721L87.868 324.454L289.343 368.111Z" fill="#3A3768"/>
<path opacity="0.1" d="M289.343 368.111L401.828 320.115C401.828 320.115 408.113 321.471 404.046 326.081C399.978 330.69 291.512 372.721 291.512 372.721L87.868 324.454L289.343 368.111Z" fill="black"/>
<path opacity="0.1" d="M280.124 327.165C280.124 327.165 269.277 340.181 280.124 359.705V327.165Z" fill="black"/>
<path opacity="0.1" d="M332.64 326.951L283.988 343.182L284.16 343.697L332.812 327.465L332.64 326.951Z" fill="black"/>
<path opacity="0.1" d="M342.391 325.333L283.98 347.545L284.172 348.052L342.584 325.84L342.391 325.333Z" fill="black"/>
<path opacity="0.1" d="M351.333 325.248L284.298 352.686L284.503 353.188L351.538 325.75L351.333 325.248Z" fill="black"/>
<path opacity="0.1" d="M361.071 322.899L285.086 357.224L285.31 357.718L361.294 323.394L361.071 322.899Z" fill="black"/>
<path opacity="0.1" d="M369.239 322.904L285.68 359.427L285.897 359.924L369.456 323.4L369.239 322.904Z" fill="black"/>
<path opacity="0.1" d="M387.127 319.866L286.944 363.136L287.159 363.634L387.342 320.364L387.127 319.866Z" fill="black"/>
<path opacity="0.45" d="M136.412 280.796L231.862 260.73L290.01 271.848L211.796 297.066L136.412 280.796Z" fill="white"/>
<path d="M401.828 282.06C401.828 282.06 406.757 284.05 403.867 287.12C400.976 290.189 290.01 322.311 290.01 322.311L401.828 282.06Z" fill="#3A3768"/>
<path d="M401.009 228.174C401.009 228.174 388.714 255.112 398.476 277.797L300.315 308.439L290.916 310.429L286.577 291.448L289.479 267.493V254.385L401.009 228.174Z" fill="#D5D6DB"/>
<path d="M91.0515 218.477L226.916 193.709L406.947 222.387L295.124 262.644L91.0515 218.477Z" fill="#C2A410"/>
<path d="M91.0516 218.472C91.0516 218.472 78.3231 242.546 92.966 264.781L294.441 308.439C294.441 308.439 281.935 289.246 295.103 262.644L91.0516 218.472Z" fill="#C2A410"/>
<path opacity="0.1" d="M91.0516 218.472C91.0516 218.472 78.3231 242.546 92.966 264.781L294.441 308.439C294.441 308.439 281.935 289.246 295.103 262.644L91.0516 218.472Z" fill="black"/>
<path opacity="0.1" d="M97.0551 226.818C97.0551 226.818 89.7933 244.433 97.0551 255.833V226.818Z" fill="black"/>
<path d="M294.463 308.439L406.942 272.374C406.942 272.374 413.233 273.73 409.165 278.339C405.098 282.949 296.632 313.049 296.632 313.049L92.9877 264.781L294.463 308.439Z" fill="#C2A410"/>
<path opacity="0.1" d="M294.463 308.439L406.942 272.374C406.942 272.374 413.233 273.73 409.165 278.339C405.098 282.949 296.632 313.049 296.632 313.049L92.9877 264.781L294.463 308.439Z" fill="black"/>
<path opacity="0.1" d="M285.243 267.493C285.243 267.493 274.397 280.509 285.243 300.032V267.493Z" fill="black"/>
<path opacity="0.1" d="M337.761 267.277L289.109 283.509L289.281 284.023L337.933 267.792L337.761 267.277Z" fill="black"/>
<path opacity="0.1" d="M347.509 265.662L289.097 287.874L289.29 288.381L347.702 266.169L347.509 265.662Z" fill="black"/>
<path opacity="0.1" d="M356.445 265.58L289.41 293.018L289.615 293.52L356.651 266.081L356.445 265.58Z" fill="black"/>
<path opacity="0.1" d="M366.191 263.226L290.206 297.551L290.43 298.045L366.414 263.72L366.191 263.226Z" fill="black"/>
<path opacity="0.1" d="M374.362 263.236L290.803 299.759L291.02 300.256L374.579 263.733L374.362 263.236Z" fill="black"/>
<path opacity="0.1" d="M392.248 260.202L292.065 303.472L292.28 303.97L392.463 260.7L392.248 260.202Z" fill="black"/>
<path opacity="0.3" d="M141.526 221.124L236.976 201.058L295.124 212.175L216.91 237.394L141.526 221.124Z" fill="white"/>
<path d="M406.942 222.387C406.942 222.387 411.877 224.378 408.981 227.453C406.085 230.528 295.125 262.644 295.125 262.644L406.942 222.387Z" fill="#C2A410"/>
<path d="M168.35 57.7579C168.35 57.7579 147.741 56.516 150.149 70.9744C150.149 70.9744 149.667 73.5288 151.982 74.6894C151.982 74.6894 152.02 73.6047 154.097 73.979C154.839 74.1063 155.593 74.1427 156.343 74.0874C157.354 74.0182 158.315 73.6223 159.081 72.9594C159.081 72.9594 164.879 70.5623 167.135 61.0824C167.135 61.0824 168.805 59.0161 168.762 58.4846L165.269 59.9706C165.269 59.9706 166.457 62.4816 165.524 64.5695C165.524 64.5695 165.41 60.0628 164.738 60.1658C164.602 60.1658 162.932 61.039 162.932 61.039C162.932 61.039 164.976 65.4156 163.431 68.5936C163.431 68.5936 164.017 63.2029 162.292 61.3535L159.841 62.7853C159.841 62.7853 162.232 67.3029 160.611 70.9907C160.611 70.9907 161.028 65.3342 159.325 63.1324L157.102 64.8678C157.102 64.8678 159.353 69.3204 157.98 72.3791C157.98 72.3791 157.801 65.7952 156.625 65.2963C156.625 65.2963 154.678 67.01 154.385 67.7151C154.385 67.7151 155.925 70.969 154.965 72.6557C154.965 72.6557 154.385 68.2682 153.88 68.2465C153.88 68.2465 151.944 71.1534 151.744 73.1275C151.837 71.2871 152.411 69.5034 153.409 67.9537C152.293 68.1648 151.263 68.6984 150.447 69.4885C150.447 69.4885 150.746 67.433 153.891 67.2541C153.891 67.2541 155.491 65.0468 155.92 64.9166C155.92 64.9166 152.79 64.6509 150.898 65.4915C150.898 65.4915 152.568 63.5554 156.489 64.4068L158.658 62.6172C158.658 62.6172 154.547 62.0748 152.801 62.6768C152.801 62.6768 154.813 60.9631 159.249 62.2104L161.641 60.7841C161.641 60.7841 158.132 60.0303 156.044 60.3014C156.044 60.3014 158.246 59.1137 162.341 60.399L164.044 59.6344C164.044 59.6344 161.478 59.13 160.725 59.0486C159.971 58.9673 159.933 58.7612 159.933 58.7612C161.561 58.4938 163.231 58.6815 164.76 59.3035C164.76 59.3035 168.42 57.9857 168.35 57.7579Z" fill="#C2A410"/>
<path opacity="0.1" d="M458.279 117.186C458.279 117.186 437.67 115.944 440.078 130.403C440.078 130.403 439.595 132.957 441.911 134.118C441.911 134.118 441.949 133.033 444.026 133.407C444.768 133.532 445.521 133.568 446.271 133.516C447.273 133.442 448.224 133.046 448.983 132.388C448.983 132.388 454.786 129.991 457.037 120.511C457.037 120.511 458.707 118.445 458.664 117.913L455.182 119.399C455.182 119.399 456.37 121.91 455.437 123.998C455.437 123.998 455.323 119.491 454.656 119.594C454.52 119.594 452.844 120.467 452.844 120.467C452.844 120.467 454.889 124.844 453.349 128.022C453.349 128.022 453.935 122.631 452.204 120.782L449.753 122.214C449.753 122.214 452.145 126.731 450.523 130.419C450.523 130.419 450.941 124.763 449.238 122.561L447.02 124.296C447.02 124.296 449.265 128.749 447.893 131.808C447.893 131.808 447.714 125.224 446.537 124.725C446.537 124.725 444.596 126.438 444.297 127.144C444.297 127.144 445.838 130.397 444.883 132.084C444.883 132.084 444.297 127.697 443.798 127.675C443.798 127.675 441.862 130.582 441.662 132.556C441.756 130.715 442.332 128.931 443.332 127.382C442.215 127.594 441.184 128.127 440.365 128.917C440.365 128.917 440.669 126.862 443.809 126.683C443.809 126.683 445.409 124.475 445.838 124.34C445.838 124.34 442.714 124.079 440.816 124.92C440.816 124.92 442.486 122.984 446.407 123.835L448.576 122.046C448.576 122.046 444.46 121.503 442.719 122.105C442.719 122.105 444.726 120.392 449.167 121.639L451.554 120.213C451.554 120.213 448.045 119.459 445.957 119.73C445.957 119.73 448.159 118.542 452.253 119.827L453.962 119.063C453.962 119.063 451.391 118.558 450.637 118.477C449.883 118.396 449.845 118.19 449.845 118.19C451.473 117.919 453.145 118.107 454.672 118.732C454.672 118.732 458.344 117.414 458.279 117.186Z" fill="#C2A410"/>
<path opacity="0.1" d="M203.059 147.08C203.059 147.08 194.078 128.461 182.645 137.638C182.645 137.638 180.178 138.462 180.297 141.049C180.297 141.049 181.246 140.555 181.924 142.551C182.177 143.257 182.512 143.93 182.922 144.558C183.477 145.409 184.294 146.056 185.249 146.402C185.249 146.402 190.168 150.296 199.544 147.638C199.544 147.638 202.164 148.088 202.592 147.774L199.599 145.458C199.599 145.458 197.972 147.72 195.705 147.92C195.705 147.92 199.588 145.626 199.17 145.095C199.083 144.986 197.543 143.94 197.543 143.94C197.543 143.94 194.718 147.861 191.193 148.061C191.193 148.061 196.182 145.946 196.952 143.533L194.512 142.09C194.512 142.09 191.729 146.385 187.722 146.765C187.722 146.765 192.863 144.373 193.953 141.814L191.361 140.729C191.361 140.729 188.568 144.862 185.227 145.16C185.227 145.16 190.889 141.792 190.748 140.517C190.748 140.517 188.302 139.661 187.543 139.742C187.543 139.742 185.471 142.665 183.519 142.665C183.519 142.665 187.06 140.013 186.843 139.585C186.843 139.585 183.361 139.313 181.528 140.127C183.18 139.306 185.018 138.932 186.859 139.042C186.129 138.171 185.16 137.532 184.072 137.204C184.072 137.204 186.013 136.466 187.7 139.118C187.7 139.118 190.412 139.438 190.732 139.747C190.732 139.747 189.435 136.895 187.781 135.653C187.781 135.653 190.287 136.157 191.431 139.991L194.061 141.033C194.061 141.033 192.548 137.171 191.155 135.951C191.155 135.951 193.628 136.868 194.707 141.374L197.115 142.763C197.115 142.763 196.068 139.33 194.81 137.643C194.81 137.643 196.92 138.988 197.793 143.186L199.295 144.303C199.295 144.303 198.481 141.814 198.21 141.119C197.939 140.425 198.075 140.284 198.075 140.284C199.106 141.572 199.76 143.121 199.962 144.758C199.962 144.758 202.863 147.242 203.059 147.08Z" fill="#C2A410"/>
<path opacity="0.1" d="M411.194 90.8833C411.194 90.8833 402.218 72.2652 390.78 81.4414C390.78 81.4414 388.318 82.2657 388.432 84.8527C388.432 84.8527 389.387 84.3646 390.059 86.3549C390.312 87.0633 390.649 87.7388 391.062 88.3669C391.615 89.2162 392.43 89.8617 393.384 90.2054C393.384 90.2054 398.308 94.0993 407.679 91.4474C407.679 91.4474 410.299 91.8921 410.733 91.5775L407.755 89.2564C407.755 89.2564 406.128 91.5233 403.867 91.724C403.867 91.724 407.744 89.4245 407.327 88.893C407.24 88.7845 405.7 87.7378 405.7 87.7378C405.7 87.7378 402.88 91.6589 399.349 91.8595C399.349 91.8595 404.344 89.7445 405.114 87.3365L402.636 85.9048C402.636 85.9048 399.859 90.1946 395.846 90.5796C395.846 90.5796 400.987 88.1826 402.082 85.6228L399.485 84.5381C399.485 84.5381 396.692 88.6761 393.356 88.9689C393.356 88.9689 399.013 85.6011 398.872 84.332C398.872 84.332 396.431 83.4697 395.672 83.5565C395.672 83.5565 393.6 86.4742 391.643 86.4742C391.643 86.4742 395.189 83.8222 394.973 83.3938C394.973 83.3938 391.491 83.1226 389.652 83.9361C391.304 83.1149 393.142 82.7409 394.983 82.8515C394.256 81.9799 393.288 81.3407 392.201 81.013C392.201 81.013 394.143 80.2754 395.829 82.9274C395.829 82.9274 398.541 83.2528 398.861 83.5619C398.861 83.5619 397.565 80.7038 395.905 79.4619C395.905 79.4619 398.411 79.9717 399.555 83.8277L402.191 84.8689C402.191 84.8689 400.678 81.0021 399.284 79.7819C399.284 79.7819 401.757 80.6984 402.831 85.2052L405.244 86.5935C405.244 86.5935 404.192 83.166 402.934 81.4739C402.934 81.4739 405.049 82.8189 405.917 87.0165L407.419 88.1337C407.419 88.1337 406.611 85.6445 406.334 84.9503C406.058 84.2561 406.199 84.1205 406.199 84.1205C407.227 85.4093 407.879 86.9581 408.081 88.5947C408.081 88.5947 411.025 91.0569 411.194 90.8833Z" fill="#C2A410"/>
<path opacity="0.1" d="M439.877 182.976C439.877 182.976 430.902 164.353 419.448 173.529C419.448 173.529 416.986 174.353 417.1 176.94C417.1 176.94 418.054 176.452 418.727 178.442C418.978 179.151 419.313 179.826 419.724 180.455C420.277 181.304 421.092 181.949 422.046 182.293C422.046 182.293 426.97 186.192 436.347 183.535C436.347 183.535 438.961 183.985 439.395 183.665L436.401 181.349C436.401 181.349 434.774 183.616 432.507 183.817C432.507 183.817 436.385 181.517 435.967 180.986C435.88 180.878 434.34 179.831 434.34 179.831C434.34 179.831 431.52 183.752 427.99 183.958C427.99 183.958 432.984 181.837 433.754 179.43L431.309 177.987C431.309 177.987 428.532 182.282 424.519 182.662C424.519 182.662 429.66 180.265 430.755 177.705L428.158 176.62C428.158 176.62 425.365 180.753 422.029 181.051C422.029 181.051 427.691 177.683 427.55 176.409C427.55 176.409 425.104 175.546 424.345 175.633C424.345 175.633 422.273 178.551 420.316 178.551C420.316 178.551 423.862 175.899 423.645 175.471C423.645 175.471 420.164 175.199 418.325 176.013C419.979 175.192 421.819 174.818 423.662 174.928C422.933 174.055 421.964 173.416 420.874 173.09C420.874 173.09 422.816 172.347 424.502 175.004C424.502 175.004 427.214 175.324 427.534 175.633C427.534 175.633 426.238 172.781 424.584 171.533C424.584 171.533 427.089 172.043 428.234 175.899L430.864 176.94C430.864 176.94 429.351 173.073 427.957 171.859C427.957 171.859 430.43 172.77 431.504 177.282L433.917 178.665C433.917 178.665 432.865 175.237 431.607 173.545C431.607 173.545 433.722 174.89 434.595 179.093L436.097 180.178C436.097 180.178 435.284 177.689 435.013 176.994C434.742 176.3 434.877 176.165 434.877 176.165C435.908 177.452 436.56 179.002 436.759 180.639C436.759 180.639 439.709 183.139 439.877 182.976Z" fill="#C2A410"/>
<path opacity="0.1" d="M109.523 425.272C116.409 425.272 121.991 424.648 121.991 423.879C121.991 423.109 116.409 422.485 109.523 422.485C102.637 422.485 97.0552 423.109 97.0552 423.879C97.0552 424.648 102.637 425.272 109.523 425.272Z" fill="#C2A410"/>
<path opacity="0.1" d="M27.7889 401.583C34.6749 401.583 40.2571 400.959 40.2571 400.19C40.2571 399.42 34.6749 398.796 27.7889 398.796C20.903 398.796 15.3208 399.42 15.3208 400.19C15.3208 400.959 20.903 401.583 27.7889 401.583Z" fill="#C2A410"/>
<path opacity="0.1" d="M171.826 441.005C178.712 441.005 184.294 440.381 184.294 439.612C184.294 438.842 178.712 438.218 171.826 438.218C164.94 438.218 159.358 438.842 159.358 439.612C159.358 440.381 164.94 441.005 171.826 441.005Z" fill="#C2A410"/>
<path opacity="0.1" d="M491.095 406.736C497.981 406.736 503.563 406.112 503.563 405.342C503.563 404.572 497.981 403.948 491.095 403.948C484.209 403.948 478.627 404.572 478.627 405.342C478.627 406.112 484.209 406.736 491.095 406.736Z" fill="#C2A410"/>
<path opacity="0.1" d="M387.342 399.973C394.228 399.973 399.81 399.349 399.81 398.579C399.81 397.809 394.228 397.185 387.342 397.185C380.456 397.185 374.874 397.809 374.874 398.579C374.874 399.349 380.456 399.973 387.342 399.973Z" fill="#C2A410"/>
<path opacity="0.1" d="M320.223 432.957C328.367 432.957 334.969 431.823 334.969 430.425C334.969 429.026 328.367 427.892 320.223 427.892C312.08 427.892 305.478 429.026 305.478 430.425C305.478 431.823 312.08 432.957 320.223 432.957Z" fill="#C2A410"/>
<path d="M326.802 404.968C326.802 404.968 306.269 415.576 316.877 428.071C316.877 428.071 317.875 430.783 320.76 430.593C320.76 430.593 320.185 429.541 322.387 428.7C323.171 428.397 323.915 428.002 324.605 427.523C325.538 426.879 326.235 425.948 326.59 424.871C326.59 424.871 330.788 419.253 327.534 408.856C327.534 408.856 327.957 405.917 327.588 405.44L325.094 408.862C325.094 408.862 327.67 410.592 327.968 413.135C327.968 413.135 325.256 408.867 324.714 409.339C324.595 409.437 323.477 411.21 323.477 411.21C323.477 411.21 327.946 414.242 328.277 418.179C328.277 418.179 325.761 412.663 323.044 411.877L321.487 414.654C321.487 414.654 326.368 417.626 326.91 422.094C326.91 422.094 324.074 416.427 321.178 415.283L320.034 418.217C320.034 418.217 324.741 421.21 325.175 424.931C325.175 424.931 321.238 418.71 319.822 418.906C319.822 418.906 318.933 421.661 319.052 422.512C319.052 422.512 322.376 424.736 322.436 426.921C322.436 426.921 319.367 423.044 318.895 423.298C318.895 423.298 318.699 427.198 319.643 429.226C319.643 429.226 318.016 426.33 318.282 423.298C317.331 424.14 316.646 425.24 316.313 426.466C316.313 426.466 315.429 424.323 318.342 422.349C318.342 422.349 318.618 419.318 318.954 418.944C318.954 418.944 315.803 420.484 314.464 422.371C314.464 422.371 314.957 419.556 319.231 418.157L320.316 415.185C320.316 415.185 316.042 416.997 314.724 418.591C314.724 418.591 315.673 415.798 320.652 414.459L322.127 411.747C322.127 411.747 318.331 413.027 316.476 414.459C316.476 414.459 317.913 412.056 322.583 410.95L323.781 409.241C323.781 409.241 321.026 410.223 320.256 410.575C319.486 410.928 319.334 410.754 319.334 410.754C320.742 409.564 322.452 408.787 324.275 408.509C324.275 408.509 326.992 405.152 326.802 404.968Z" fill="#C2A410"/>
<path d="M387.743 204.615C384.197 194.978 364.673 194.072 356.202 196.529C350.182 198.281 337.491 200.255 330.712 201.247L330.273 200.83C331.151 200.57 331.173 199.93 331.065 198.98C331.002 197.73 331.02 196.476 331.119 195.228C335.273 196.518 338.972 193.465 338.972 193.465C343.853 191.296 342.54 182.011 343.473 179.473C344.173 177.575 344.927 166.392 345.263 160.817H345.333L345.371 158.946C345.42 158.138 345.442 157.666 345.442 157.666C345.442 157.666 345.919 144.032 346.852 141.271C347.72 138.733 348.425 125.945 348.533 123.917C348.533 123.743 348.533 123.651 348.533 123.651L348.463 122.469C348.511 121.606 348.533 120.647 348.528 119.638C348.528 115.001 348.045 109.16 347.985 108.216C347.985 108.081 347.985 107.918 347.985 107.723C348.023 105.743 347.774 95.8296 339.341 92.0821C336.233 90.6937 332.496 89.0396 328.879 87.4289C327.946 79.3753 325.815 71.3651 325.999 63.2519C325.999 62.0316 326.108 60.8114 326.227 59.5966C326.227 59.9491 326.189 60.307 326.184 60.6812C326.184 61.4676 326.184 62.2594 326.184 63.0458C326.504 52.8988 330.338 42.6976 329.98 32.7676C329.947 33.7383 329.877 34.7145 329.785 35.6907C329.972 32.332 329.62 28.9649 328.743 25.7173C328.418 24.573 327.979 23.3907 327.041 22.626C326.154 22.0102 325.137 21.6074 324.069 21.4492C321.502 20.7923 318.895 20.3067 316.264 19.9957C315.865 18.7721 315.272 17.6204 314.507 16.5845C309.008 9.03526 300.862 1.9416 291.231 0.314614C286.398 -0.498879 280.84 0.179031 277.553 3.63367C277.21 3.93715 276.887 4.26327 276.588 4.60986C274.82 6.71952 274.06 9.49082 272.249 11.5951C272.13 11.7361 271.994 11.8662 271.864 12.0018C268.317 15.1744 262.791 15.8361 258.848 18.6833C258.153 19.1944 257.502 19.7622 256.901 20.3808C255.313 21.9551 253.888 23.6868 252.649 25.5492C250.876 28.0439 249.054 30.6416 248.49 33.619C247.356 39.5846 251.418 45.2411 252.172 51.2447C253.853 64.6782 238.988 76.5986 241.803 89.8531C242.554 93.1093 244.212 96.086 246.586 98.4382C240.789 103.688 235.853 108.78 235.853 108.78V109.084H234.937L235.029 110.169H234.937L235.441 116.053L234.937 124.622C234.937 124.622 234.937 124.714 234.937 124.888V124.931V125.164C234.937 125.164 234.937 125.256 234.937 125.43H234.969C235.138 128.57 235.805 139.861 236.596 142.242C237.529 145.003 238.001 158.637 238.001 158.637C238.001 158.637 239.031 177.906 239.975 180.455C240.919 183.003 239.579 192.261 244.476 194.447C245.909 195.546 247.605 196.249 249.395 196.486C249.146 198.514 249.303 199.984 250.111 200.445C250.457 200.648 250.849 200.76 251.25 200.77C250.918 201.263 250.622 201.78 250.366 202.316C248.422 202.113 246.512 201.663 244.683 200.976C239.422 198.807 221.964 193.926 216.894 197.359C211.823 200.792 199.62 203.905 205.255 217.723C210.89 231.542 213.515 231.889 213.515 231.889C215.249 233.148 216.771 234.677 218.022 236.417C219.714 238.961 235.479 244.78 239.422 244.78C241.098 244.754 242.773 244.838 244.438 245.03C244.438 245.03 240.16 248.783 240.729 250.963C241.298 253.143 239.427 270.595 239.427 270.595C239.427 270.595 243.766 274.966 245.621 269.234L245.686 269.321C246.033 269.792 247.909 271.924 251.44 269.234C252.885 268.138 254.42 267.165 256.028 266.327L273.122 263.908C274.904 263.797 276.691 263.784 278.475 263.87C281.187 264.092 283.85 262.487 285.525 261.245C289.067 262.59 293.047 264.06 294.94 264.597C298.78 265.681 316.427 270.416 320.554 268.935C321.412 268.594 322.175 268.051 322.778 267.352L326.715 267.477L324.871 267.845C324.871 267.845 328.461 267.905 333.342 267.97L333.136 268.089L339.259 268.035C348.219 268.117 358.284 268.144 359.607 267.845C361.679 267.384 372.444 267.71 375.617 267.845H376.501C376.501 267.845 388.329 265.486 383.448 253.485C379.695 244.265 368.16 241.586 363.04 240.848C364.483 240.561 365.725 240.338 366.549 240.208C370.123 239.666 377.065 236.412 377.629 235.3C378.193 234.188 384.012 230.962 385.514 229.123C387.017 227.285 391.307 214.252 387.743 204.615ZM289.772 231.585L289.191 231.775L288.801 231.905L288.053 232.643C287.456 232.242 286.816 231.818 286.149 231.385C287.326 231.455 288.535 231.526 289.772 231.585Z" fill="url(#paint0_linear_67_5)"/>
<path d="M324.351 174.402C324.351 174.402 332.648 196.095 337.366 193.926C342.085 191.757 340.805 182.537 341.705 180.01C342.605 177.482 343.603 158.317 343.603 158.317C343.603 158.317 344.059 144.758 344.959 142.014C345.794 139.492 346.472 126.775 346.586 124.773C346.586 124.6 346.586 124.508 346.586 124.508L345.691 108.78L340.626 107.517L328.879 111.855L327.252 121.145L326.618 124.773L326.346 126.319L324.351 174.402Z" fill="#BE6F72"/>
<path opacity="0.1" d="M327.084 170.769C327.084 170.769 335.002 177.249 337.388 177.819C339.774 178.388 341.239 183.443 341.239 183.443" fill="black"/>
<path d="M259.461 175.351C259.461 175.351 251.163 197.044 246.445 194.875C241.727 192.706 243.007 183.486 242.106 180.959C241.206 178.432 240.208 159.266 240.208 159.266C240.208 159.266 239.753 145.708 238.852 142.963C238.017 140.442 237.339 127.724 237.225 125.723C237.225 125.549 237.225 125.457 237.225 125.457L238.126 109.729L243.191 108.466L254.938 112.804L256.565 122.095L257.199 125.723L257.471 127.268L259.461 175.351Z" fill="#BE6F72"/>
<path d="M313.493 59.2603H294.973V88.1284H313.493V59.2603Z" fill="#3E373A"/>
<path opacity="0.1" d="M313.493 59.2603H294.973V88.1284H313.493V59.2603Z" fill="black"/>
<path d="M256.207 196.958C256.207 196.958 249.878 203.916 252.226 205.179C254.574 206.443 269.765 230.126 269.765 230.126C269.765 230.126 319.659 236.271 329.069 227.051C338.478 217.832 338.288 201.361 338.288 201.361C338.288 201.361 330.728 202.988 329.904 202.104C329.08 201.22 324.551 196.958 324.551 196.958C324.551 196.958 260.546 193.074 256.207 196.958Z" fill="#4B4B5B"/>
<path opacity="0.02" d="M256.207 196.958C256.207 196.958 249.878 203.916 252.226 205.179C254.574 206.443 269.765 230.126 269.765 230.126C269.765 230.126 319.659 236.271 329.069 227.051C338.478 217.832 338.288 201.361 338.288 201.361C338.288 201.361 330.728 202.988 329.904 202.104C329.08 201.22 324.551 196.958 324.551 196.958C324.551 196.958 260.546 193.074 256.207 196.958Z" fill="black"/>
<path d="M346.028 109.008L329.758 122.024L324.839 122.382L323.033 122.512L292.7 124.736L261.245 122.436L256.565 122.094L250.599 121.661L238.126 109.729C238.126 109.729 246.955 100.271 254.688 93.8879C257.736 91.3661 260.616 89.3269 262.715 88.5243L263.073 88.3995C264.393 87.8847 265.572 87.063 266.511 86.0024C272.618 79.706 278.264 64.1683 278.264 64.1683C278.264 64.1683 305.201 50.2521 301.947 68.5069C298.693 86.7617 314.057 82.2495 314.057 82.2495L319.123 84.5598L321.124 85.4764L326.227 87.8138L337.741 93.0961C346.776 97.2558 346.028 109.008 346.028 109.008Z" fill="#BE6F72"/>
<path opacity="0.1" d="M291.437 79.0337C304.816 79.0337 315.662 68.1874 315.662 54.8079C315.662 41.4283 304.816 30.582 291.437 30.582C278.057 30.582 267.211 41.4283 267.211 54.8079C267.211 68.1874 278.057 79.0337 291.437 79.0337Z" fill="black"/>
<path opacity="0.1" d="M346.065 126.265H237.225C237.225 126.091 237.225 125.999 237.225 125.999L238.126 110.272C238.126 110.272 246.955 100.813 254.688 94.4302L323.022 91.7185L326.2 88.3669L337.714 93.6492C346.754 97.8035 346.027 109.556 346.027 109.556C346.027 109.556 347.264 123.174 346.065 126.265Z" fill="black"/>
<path d="M346.065 125.723H237.225C237.225 125.549 237.225 125.457 237.225 125.457L238.126 109.729C238.126 109.729 246.955 100.271 254.688 93.8879L323.022 91.1763L326.2 87.8247L337.714 93.107C346.754 97.2612 346.027 109.013 346.027 109.013C346.027 109.013 347.264 122.631 346.065 125.723Z" fill="#E7C7CA"/>
<path opacity="0.1" d="M273.99 81.6205C273.99 81.6205 291.16 103.498 314.03 81.1704C336.9 58.8427 316.563 130.972 316.563 130.972L267.211 136.83L273.99 81.6205Z" fill="black"/>
<path d="M273.99 82.7053C273.99 82.7053 291.16 104.583 314.03 82.2551C336.9 59.9274 316.563 132.057 316.563 132.057L267.211 137.914L273.99 82.7053Z" fill="#E7C7CA"/>
<path opacity="0.1" d="M321.097 86.5447L322.913 114.252L324.86 123.472L326.346 130.522C326.346 130.522 330.143 184.755 329.058 187.467C327.973 190.178 329.6 192.348 329.828 193.79C330.056 195.233 329.6 198.856 329.779 200.483C329.958 202.11 329.779 202.831 325.625 202.251C321.471 201.67 315.679 200.662 315.679 200.662C315.679 200.662 301.036 201.746 295.976 199.94C290.916 198.134 281.333 198.129 281.333 198.129C281.333 198.129 266.869 198.492 262.173 197.95C257.476 197.408 254.938 203.737 251.868 201.925C248.799 200.114 255.48 182.586 257.65 177.52C259.819 172.455 254.759 159.624 254.759 159.624L261.267 123.521L262.715 115.337V89.6089L263.073 89.4842C264.393 88.9693 265.572 88.1477 266.511 87.0871L268.138 112.978L319.117 114.789V85.6499" fill="black"/>
<path d="M321.097 85.4603L322.913 113.168L324.86 122.387L326.346 129.438C326.346 129.438 330.143 183.671 329.058 186.382C327.973 189.094 329.6 191.263 329.828 192.706C330.056 194.148 329.6 197.771 329.779 199.398C329.958 201.025 329.779 201.746 325.625 201.166C321.471 200.586 315.679 199.577 315.679 199.577C315.679 199.577 301.036 200.662 295.976 198.856C290.916 197.05 281.333 197.044 281.333 197.044C281.333 197.044 266.869 197.408 262.173 196.865C257.476 196.323 254.938 202.652 251.868 200.841C248.799 199.029 255.48 181.501 257.65 176.436C259.819 171.371 254.759 158.539 254.759 158.539L261.267 122.436L262.715 114.252V88.5244L263.073 88.3997C264.393 87.8849 265.572 87.0632 266.511 86.0026L268.138 111.893L319.117 113.705V84.5654" fill="#E7C7CA"/>
<path opacity="0.1" d="M326.959 27.6371C326.65 26.5036 326.222 25.3268 325.332 24.5675C324.483 23.9577 323.502 23.5564 322.469 23.3961C319.995 22.7456 317.48 22.2637 314.941 21.9535C314.578 20.7493 314.029 19.6092 313.314 18.5748C307.999 11.069 300.136 3.99158 290.883 2.39171C286.04 1.5511 280.427 2.30494 277.325 6.12293C275.622 8.22174 274.89 11.0039 273.171 13.0647C269.857 17.0671 263.875 17.5606 259.7 20.6573C257.471 22.2843 255.854 24.6435 254.276 26.9321C252.568 29.4105 250.811 31.992 250.268 34.9531C249.184 40.8699 253.094 46.5102 253.815 52.4812C255.442 65.8387 241.125 77.6886 243.831 90.8672C245.409 98.552 252.508 103.964 259.851 106.709C262.438 107.679 265.394 108.645 266.603 111.129C267.146 112.213 267.238 113.466 267.748 114.562C269.461 118.217 275.096 118.358 278.122 115.695C281.149 113.032 282.103 108.726 282.461 104.707C283.914 87.1577 276.886 69.8194 277.705 52.2263C277.949 46.906 279.446 40.8699 284.213 38.462C290.629 35.208 298.346 40.6313 305.407 39.5955C308.748 47.7257 309.458 56.6987 307.435 65.253C306.313 69.9333 304.371 74.4726 304.23 79.2993C304.019 86.6479 307.983 93.3619 311.411 99.859C312.146 101.074 312.638 102.421 312.859 103.823C312.913 105.247 312.648 106.664 312.083 107.972C310.147 113.184 306.806 118.022 306.427 123.57C306.315 124.217 306.461 124.883 306.833 125.424C307.215 125.786 307.709 126.008 308.233 126.054C314.09 127.057 319.155 121.867 322.013 116.655C325.2 110.899 327.056 104.502 327.447 97.9338C328.038 86.892 324.079 76.0291 324.323 64.9764C324.605 52.4107 330.284 39.7582 326.959 27.6371Z" fill="black"/>
<path d="M327.501 27.0946C327.192 25.9612 326.764 24.7843 325.875 24.0251C325.025 23.4152 324.044 23.0139 323.011 22.8536C320.537 22.2031 318.022 21.7212 315.483 21.411C315.121 20.2068 314.572 19.0668 313.856 18.0323C308.542 10.5265 300.678 3.4491 291.426 1.84923C286.583 1.00862 280.97 1.76246 277.868 5.58045C276.165 7.67926 275.433 10.4614 273.713 12.5223C270.4 16.5246 264.418 17.0182 260.242 20.1149C258.013 21.7418 256.397 24.101 254.819 26.3896C253.11 28.868 251.353 31.4495 250.811 34.4106C249.726 40.3275 253.636 45.9677 254.358 51.9387C255.985 65.2963 241.667 77.1461 244.373 90.3247C245.952 98.0095 253.051 103.422 260.394 106.166C262.981 107.137 265.936 108.102 267.146 110.586C267.688 111.671 267.78 112.924 268.29 114.019C270.004 117.674 275.639 117.815 278.665 115.153C281.691 112.49 282.645 108.184 283.003 104.165C284.457 86.6152 277.428 69.277 278.247 51.6838C278.491 46.3636 279.988 40.3274 284.755 37.9195C291.171 34.6655 298.888 40.0888 305.949 39.053C309.291 47.1832 310 56.1563 307.978 64.7106C306.855 69.3908 304.913 73.9301 304.772 78.7569C304.561 86.1054 308.525 92.8195 311.953 99.3166C312.688 100.531 313.18 101.878 313.401 103.281C313.455 104.704 313.19 106.122 312.625 107.43C310.689 112.642 307.349 117.479 306.969 123.027C306.858 123.675 307.004 124.34 307.376 124.882C307.758 125.243 308.251 125.465 308.775 125.511C314.632 126.514 319.697 121.324 322.555 116.112C325.742 110.356 327.599 103.959 327.99 97.3913C328.581 86.3495 324.622 75.4866 324.866 64.434C325.148 51.8682 330.826 39.2157 327.501 27.0946Z" fill="#3E373A"/>
<path d="M315.521 267.222L337.036 267.91L333.95 251.955L317.468 253.522L315.521 267.222Z" fill="#C3C7D9"/>
<path d="M382.184 229.405C380.736 231.211 375.134 234.465 374.592 235.55C374.05 236.634 367.363 239.888 363.924 240.431C360.486 240.973 349.645 243.327 347.654 244.59C346.228 245.501 334.78 248.387 327.257 249.986C325.22 250.468 323.158 250.84 321.08 251.098C317.826 251.277 282.217 239.167 282.217 239.167L289.083 232.117L289.463 231.986C291.404 231.33 300.374 228.299 305.353 226.856C310.96 225.229 317.468 218.542 317.468 218.542C317.468 218.542 327.046 215.288 328.315 214.925C329.584 214.561 325.061 202.272 325.061 202.272C325.061 202.272 345.848 199.387 353.983 196.941C362.118 194.495 380.921 195.401 384.354 204.984C387.787 214.567 383.654 227.599 382.184 229.405Z" fill="#4B4B5B"/>
<path d="M287.456 259.954C287.456 259.954 283.302 264.293 279.142 263.935C274.982 263.577 260.437 265.02 260.437 265.02C257.801 266.071 255.333 267.502 253.11 269.266C249.71 271.945 247.904 269.809 247.568 269.353L247.508 269.266C245.697 274.966 241.542 270.622 241.542 270.622C241.542 270.622 243.348 253.268 242.795 251.098C242.242 248.929 246.369 245.203 246.369 245.203L251.25 243.961L263.615 240.794L281.333 246.939L287.456 259.954Z" fill="#E7C7CA"/>
<path opacity="0.1" d="M251.228 243.961L247.568 269.353L247.508 269.266C245.697 274.966 241.542 270.622 241.542 270.622C241.542 270.622 243.348 253.268 242.795 251.098C242.242 248.929 246.369 245.203 246.369 245.203L251.228 243.961Z" fill="black"/>
<path opacity="0.1" d="M276.815 171.734C276.815 171.734 286.393 174.988 294.712 171.734H276.815Z" fill="black"/>
<path opacity="0.1" d="M309.512 177.884C309.512 177.884 313.488 179.869 316.563 177.884H309.512Z" fill="black"/>
<path opacity="0.1" d="M309.512 182.591C309.512 182.591 316.199 183.486 317.468 181.68L309.512 182.591Z" fill="black"/>
<path opacity="0.1" d="M307.343 192.706C307.343 192.706 319.903 191.079 323.022 188.909L307.343 192.706Z" fill="black"/>
<path opacity="0.1" d="M269.017 188.909C269.017 188.909 276.067 192.885 281.311 192.706L269.017 188.909Z" fill="black"/>
<path opacity="0.1" d="M327.252 249.986C325.215 250.468 323.153 250.84 321.075 251.098C317.821 251.277 282.212 239.167 282.212 239.167L289.078 232.117L289.457 231.987C290.542 232.751 291.431 233.407 292.066 233.906C295.054 236.26 297.939 233.185 299.024 233.185C300.109 233.185 309.507 240.957 309.507 240.957C309.507 240.957 318.184 242.947 319.632 244.753C321.08 246.559 326.14 246.201 327.041 247.465C327.312 247.855 327.344 248.815 327.252 249.986Z" fill="black"/>
<path d="M260.437 203.01C260.437 203.01 251.662 203.514 246.602 201.383C241.542 199.252 224.73 194.333 219.849 197.787C214.968 201.242 203.216 204.295 208.639 218.038C214.063 231.78 216.595 232.138 216.595 232.138C218.273 233.397 219.738 234.917 220.934 236.64C222.561 239.172 237.746 244.954 241.542 244.954C245.339 244.954 252.026 244.954 261.424 251.462C270.823 257.969 279.321 258.696 279.321 258.696C279.321 258.696 291.252 263.577 294.967 264.662C298.682 265.746 315.657 270.443 319.638 269C323.619 267.558 326.146 258.512 326.146 258.512C326.146 258.512 327.952 250.377 327.046 249.113C326.14 247.85 321.08 248.208 319.638 246.402C318.195 244.596 309.513 242.605 309.513 242.605C309.513 242.605 300.136 234.828 299.051 234.828C297.966 234.828 295.081 237.898 292.093 235.55C286.14 231.141 279.886 227.154 273.377 223.618C266.511 220.001 260.437 203.01 260.437 203.01Z" fill="#4B4B5B"/>
<path opacity="0.1" d="M242.795 208.254C244.358 207.935 245.973 207.981 247.514 208.388C249.056 208.796 250.483 209.553 251.684 210.603C256.023 214.22 270.622 221.482 270.622 221.482" fill="black"/>
<path opacity="0.1" d="M351.272 208.026C351.272 208.026 331.927 210.955 328.315 214.93L351.272 208.026Z" fill="black"/>
<path d="M373.507 267.91H372.656C369.597 267.802 359.233 267.476 357.237 267.91C354.889 268.453 323.792 267.91 323.792 267.91L329.871 266.647C329.871 266.647 327.615 258.74 329.047 258.083C329.047 258.083 320.912 252.725 327.046 249.108C333.18 245.49 339.791 247.014 339.791 247.014L355.187 241.797L358.143 240.794C358.143 240.794 375.498 241.7 380.194 253.631C384.891 265.562 373.507 267.91 373.507 267.91Z" fill="#E7C7CA"/>
<path opacity="0.1" d="M373.507 267.91H372.656C377.705 263.745 389.126 251.066 355.187 241.824L358.143 240.821C358.143 240.821 375.498 241.727 380.194 253.658C384.891 265.589 373.507 267.91 373.507 267.91Z" fill="black"/>
<path d="M341.602 253.853C342.126 253.853 342.551 253.428 342.551 252.904C342.551 252.38 342.126 251.955 341.602 251.955C341.078 251.955 340.653 252.38 340.653 252.904C340.653 253.428 341.078 253.853 341.602 253.853Z" fill="#4B4B5B"/>
<path d="M336.087 255.421C336.611 255.421 337.036 254.996 337.036 254.472C337.036 253.947 336.611 253.522 336.087 253.522C335.562 253.522 335.137 253.947 335.137 254.472C335.137 254.996 335.562 255.421 336.087 255.421Z" fill="#4B4B5B"/>
<g opacity="0.1">
<path opacity="0.1" d="M309.214 53.9128C309.424 47.9477 308.363 42.006 306.101 36.4824C299.051 37.5345 291.328 32.095 284.907 35.3489C280.156 37.7569 278.665 43.793 278.399 49.1132C278.334 50.5179 278.323 51.9225 278.35 53.3271C278.35 52.8282 278.35 52.3238 278.399 51.8249C278.648 46.5046 280.14 40.4685 284.907 38.0606C291.328 34.8066 299.04 40.2299 306.101 39.194C308.017 43.8727 309.072 48.8591 309.214 53.9128Z" fill="black"/>
<path opacity="0.1" d="M254.58 52.9202C254.673 51.7385 254.649 50.5505 254.509 49.3734C253.934 44.6009 251.326 40.0399 250.854 35.3867C250.247 40.9998 253.821 46.3906 254.509 52.085C254.58 52.3779 254.58 52.6382 254.58 52.9202Z" fill="black"/>
<path opacity="0.1" d="M283.155 101.589C282.819 105.613 281.87 109.914 278.817 112.582C275.763 115.25 270.139 115.104 268.442 111.448C267.9 110.364 267.818 109.1 267.292 108.015C266.088 105.532 263.127 104.566 260.54 103.595C253.192 100.846 246.103 95.4605 244.525 87.754C244.384 87.0558 244.288 86.3494 244.238 85.6389C244.104 87.2533 244.201 88.8785 244.525 90.4656C246.103 98.1504 253.202 103.557 260.54 106.307C263.127 107.278 266.088 108.243 267.292 110.727C267.834 111.812 267.927 113.064 268.442 114.16C270.15 117.815 275.785 117.956 278.817 115.293C281.848 112.631 282.792 108.325 283.155 104.3C283.32 102.182 283.376 100.057 283.323 97.9335C283.323 99.1646 283.253 100.379 283.155 101.589Z" fill="black"/>
<path opacity="0.1" d="M325.045 61.8633C325.045 62.6497 325.045 63.4307 325.045 64.2116C325.348 54.1243 329.047 43.9827 328.684 34.1069C328.402 43.2397 325.251 52.5787 325.045 61.8633Z" fill="black"/>
<path opacity="0.1" d="M313.406 102.668C313.54 102.025 313.582 101.365 313.531 100.71C313.313 99.3067 312.821 97.9597 312.083 96.7458C308.948 90.7802 305.374 84.6736 304.951 78.0518C304.951 78.3338 304.913 78.5941 304.908 78.8978C304.691 86.2409 308.655 92.9604 312.083 99.4575C312.666 100.464 313.111 101.544 313.406 102.668Z" fill="black"/>
<path opacity="0.1" d="M328.163 94.8207C327.758 101.391 325.888 107.788 322.691 113.542C319.827 118.754 314.767 123.944 308.905 122.94C308.38 122.895 307.886 122.671 307.506 122.306C307.396 122.182 307.309 122.038 307.251 121.883C307.186 122.306 307.132 122.734 307.099 123.168C306.987 123.814 307.133 124.478 307.506 125.018C307.886 125.383 308.38 125.607 308.905 125.652C314.767 126.655 319.827 121.465 322.691 116.254C325.888 110.499 327.758 104.103 328.163 97.5324C328.228 96.2633 328.234 94.9997 328.196 93.7361C328.185 94.0994 328.185 94.4574 328.163 94.8207Z" fill="black"/>
</g>
<path opacity="0.1" d="M329.047 258.083C329.047 258.083 342.773 263.843 351.825 251.098" stroke="black" stroke-miterlimit="10"/>
<path opacity="0.1" d="M331.748 268.149C331.748 268.149 342.958 260.86 357.237 267.91" stroke="black" stroke-miterlimit="10"/>
<path opacity="0.1" d="M256.711 266.495C256.711 266.495 261.419 255.876 273.99 263.973" stroke="black" stroke-miterlimit="10"/>
<path opacity="0.1" d="M241.45 109.458L251.049 100.781C251.049 100.781 288.269 98.3405 289.81 110.993C289.81 110.993 303.005 95.9922 330.755 99.333L342.497 108.683L310.044 122.924L278.508 133.863L255.28 123.467L241.45 109.458Z" fill="black"/>
<path d="M241.45 110L251.049 101.323C251.049 101.323 288.269 98.8828 289.81 111.535C289.81 111.535 303.005 96.5345 330.755 99.8752L342.497 109.225L310.044 123.467L278.508 134.405L255.28 124.009L241.45 110Z" fill="#D5D6DB"/>
<path opacity="0.1" d="M237.204 111.085L241.45 161.885L286.463 164.147L284.511 113.564L284.473 112.712L237.204 111.085Z" fill="black"/>
<path d="M237.204 110L241.45 160.8L286.463 163.062L284.511 112.479L284.473 111.627L237.204 110Z" fill="#C2A410"/>
<path opacity="0.1" d="M344.558 110L298.124 116.964V167.992L343.5 161.435L344.558 110Z" fill="black"/>
<path d="M344.558 108.916L298.124 115.879V166.907L343.5 160.35L344.558 108.916Z" fill="#C2A410"/>
<path opacity="0.3" d="M333.608 121.368L308.525 124.155L309.073 132.702L333.592 130.023L333.608 121.368Z" fill="white"/>
<path d="M243.891 188.004L246.445 194.875C246.445 194.875 250.241 198.129 254.396 196.502C258.55 194.875 262.173 194.067 263.979 192.483C265.784 190.9 268.317 182.944 268.317 182.944C268.317 182.944 270.85 174.266 273.377 172.097C275.904 169.928 282.597 140.04 273.377 142.963C264.157 145.886 257.107 173.003 257.107 173.003C257.107 173.003 255.48 174.988 253.132 175.172C250.784 175.357 246.082 174.809 245.176 176.799C244.27 178.789 241.179 184.028 243.891 188.004Z" fill="#BE6F72"/>
<path opacity="0.1" d="M298.124 116.959C295.746 117.494 293.276 117.466 290.912 116.877C288.547 116.287 286.353 115.153 284.506 113.564L286.463 164.141C286.463 164.141 291.073 169.131 298.124 167.992V116.959Z" fill="black"/>
<path d="M298.124 115.874C295.746 116.41 293.276 116.382 290.912 115.792C288.547 115.203 286.353 114.068 284.506 112.479L286.463 163.057C286.463 163.057 291.073 168.046 298.124 166.907V115.874Z" fill="#C2A410"/>
<path opacity="0.1" d="M298.124 115.874C295.746 116.41 293.276 116.382 290.912 115.792C288.547 115.203 286.353 114.068 284.506 112.479L286.463 163.057C286.463 163.057 291.073 168.046 298.124 166.907V115.874Z" fill="black"/>
<path opacity="0.1" d="M299.208 110.174C299.208 110.174 318.097 104.398 323.022 105.212L299.208 110.174Z" fill="black"/>
<path opacity="0.1" d="M278.079 107.652C278.079 107.652 259.77 103.314 256.711 104.545L278.079 107.652Z" fill="black"/>
<path opacity="0.1" d="M311.118 110.895C311.118 110.895 323.749 106.264 328.315 108.466L311.118 110.895Z" fill="black"/>
<path opacity="0.1" d="M304.756 227.079C306.713 225.609 308.797 224.315 310.982 223.212C314.236 221.644 320.202 217.577 320.202 217.577" fill="black"/>
<path opacity="0.1" d="M256.711 171.734C256.711 171.734 248.788 178.215 246.407 178.784C244.026 179.354 242.557 184.408 242.557 184.408" fill="black"/>
<path d="M339.899 187.038L337.372 193.926C337.372 193.926 333.576 197.18 329.416 195.553C325.256 193.926 321.644 193.118 319.833 191.534C318.022 189.951 315.494 181.995 315.494 181.995C315.494 181.995 312.967 173.317 310.434 171.148C307.902 168.979 301.215 139.091 310.434 142.014C319.654 144.937 326.704 172.054 326.704 172.054C326.704 172.054 328.331 174.039 330.68 174.223C333.028 174.408 337.73 173.86 338.635 175.85C339.541 177.841 342.611 183.079 339.899 187.038Z" fill="#BE6F72"/>
<path opacity="0.1" d="M335.468 174.37C335.468 174.37 340.647 177.7 340.626 181.68L335.468 174.37Z" fill="black"/>
<path d="M291.523 77.8459C304.903 77.8459 315.749 66.9997 315.749 53.6201C315.749 40.2406 304.903 29.3943 291.523 29.3943C278.144 29.3943 267.298 40.2406 267.298 53.6201C267.298 66.9997 278.144 77.8459 291.523 77.8459Z" fill="#BE6F72"/>
<path d="M276.311 47.1175C279.25 46.6566 281.827 44.9482 284.636 43.9666C290.921 41.7593 297.874 43.2724 304.236 45.2628C306.676 46.0275 309.154 46.8898 311.714 46.8898C314.274 46.8898 316.991 45.8431 318.298 43.6358C319.502 41.6075 319.269 38.9718 318.255 36.8404C317.241 34.7091 315.543 32.9953 313.829 31.3792C308.189 26.0535 301.193 21.0749 293.454 21.6173C290.341 21.8396 287.364 22.9514 284.5 24.1825C280.895 25.7362 277.385 27.5038 273.99 29.4756C271.381 30.9887 266.549 33.0116 265.047 35.7775C261.63 42.0088 270.996 47.9527 276.311 47.1175Z" fill="#3E373A"/>
<path opacity="0.1" d="M318.298 41.358C316.991 43.5653 314.274 44.612 311.714 44.612C309.154 44.612 306.676 43.7822 304.23 43.0175C297.869 41.0272 290.921 39.5086 284.63 41.7213C281.827 42.703 279.245 44.433 276.306 44.8669C272.021 45.5393 265.123 41.8081 264.374 37.0627C263.534 42.5457 271.533 47.2422 276.306 46.4938C279.245 46.0329 281.827 44.3245 284.63 43.3483C290.921 41.1356 297.869 42.6542 304.23 44.6445C306.676 45.4092 309.149 46.2715 311.714 46.2389C314.28 46.2064 316.991 45.1977 318.298 42.985C318.976 41.7812 319.242 40.3894 319.057 39.0206C318.973 39.8447 318.714 40.6414 318.298 41.358Z" fill="black"/>
<path d="M514.898 335.273C514.898 335.273 518.114 339.476 513.412 345.827C508.71 352.177 504.837 357.536 506.399 361.495C506.399 361.495 513.493 349.704 519.263 349.536C525.034 349.368 521.238 342.361 514.898 335.273Z" fill="#C2A410"/>
<path opacity="0.1" d="M514.898 335.273C515.178 335.679 515.399 336.123 515.554 336.591C521.183 343.207 524.188 349.384 518.77 349.536C513.726 349.683 507.679 358.702 506.231 360.974C506.278 361.158 506.334 361.339 506.399 361.516C506.399 361.516 513.493 349.726 519.263 349.558C525.034 349.39 521.238 342.361 514.898 335.273Z" fill="black"/>
<path d="M520.863 340.631C520.863 342.112 520.695 343.31 520.495 343.31C520.294 343.31 520.12 342.112 520.12 340.631C520.12 339.151 520.326 339.85 520.533 339.85C520.739 339.85 520.863 339.151 520.863 340.631Z" fill="#FFD037"/>
<path d="M522.919 342.399C521.623 343.104 520.489 343.533 520.392 343.354C520.294 343.175 521.265 342.454 522.561 341.727C523.857 341 523.347 341.532 523.445 341.727C523.542 341.922 524.22 341.689 522.919 342.399Z" fill="#FFD037"/>
<path d="M497.901 335.273C497.901 335.273 494.685 339.476 499.387 345.827C504.089 352.177 507.961 357.536 506.394 361.495C506.394 361.495 499.306 349.704 493.53 349.536C487.754 349.368 491.578 342.361 497.901 335.273Z" fill="#C2A410"/>
<path opacity="0.1" d="M497.901 335.273C497.621 335.679 497.4 336.123 497.245 336.591C491.616 343.207 488.611 349.384 494.029 349.536C499.067 349.683 505.12 358.702 506.568 360.974C506.522 361.158 506.464 361.34 506.394 361.516C506.394 361.516 499.306 349.726 493.53 349.558C487.754 349.39 491.578 342.361 497.901 335.273Z" fill="black"/>
<path d="M491.925 340.631C491.925 342.112 492.087 343.31 492.293 343.31C492.5 343.31 492.668 342.112 492.668 340.631C492.668 339.151 492.456 339.85 492.255 339.85C492.055 339.85 491.925 339.151 491.925 340.631Z" fill="#FFD037"/>
<path d="M489.875 342.399C491.171 343.104 492.304 343.533 492.402 343.354C492.5 343.175 491.529 342.454 490.233 341.727C488.936 341 489.446 341.532 489.349 341.727C489.251 341.922 488.573 341.689 489.875 342.399Z" fill="#FFD037"/>
<path opacity="0.1" d="M506.399 393.666C524.97 393.666 540.024 391.357 540.024 388.508C540.024 385.66 524.97 383.351 506.399 383.351C487.829 383.351 472.775 385.66 472.775 388.508C472.775 391.357 487.829 393.666 506.399 393.666Z" fill="#C2A410"/>
<path d="M523.705 355.827L523.542 357.14L523.315 358.994L523.222 359.77L522.995 361.625L522.897 362.4L522.675 364.25L520.099 385.346C519.871 387.228 516.796 388.698 513.081 388.698H499.713C495.998 388.698 492.928 387.228 492.695 385.346L490.119 364.25L489.891 362.4L489.799 361.625L489.571 359.77L489.473 358.994L489.251 357.14L489.088 355.827C488.964 354.743 490.623 353.864 492.727 353.864H520.072C522.17 353.864 523.835 354.759 523.705 355.827Z" fill="#65617D"/>
<path d="M523.543 357.14L523.32 358.994H489.479L489.251 357.14H523.543Z" fill="#9D9CB5"/>
<path d="M523.222 359.77L523 361.625H489.799L489.571 359.77H523.222Z" fill="#9D9CB5"/>
<path d="M522.902 362.4L522.675 364.255H490.119L489.896 362.4H522.902Z" fill="#9D9CB5"/>
</g>
<defs>
<linearGradient id="paint0_linear_67_5" x1="296.459" y1="272.206" x2="296.459" y2="6.1761e-05" gradientUnits="userSpaceOnUse">
<stop stop-color="#808080" stop-opacity="0.25"/>
<stop offset="0.54" stop-color="#808080" stop-opacity="0.12"/>
<stop offset="1" stop-color="#808080" stop-opacity="0.1"/>
</linearGradient>
<clipPath id="clip0_67_5">
<rect width="554.716" height="441" fill="white"/>
</clipPath>
</defs>
</svg>
