<svg width="435" height="364" viewBox="0 0 435 364" fill="none" xmlns="http://www.w3.org/2000/svg">
<path fill-rule="evenodd" clip-rule="evenodd" d="M460.421 231.28C459.568 283.563 562.692 305.775 551.208 356.788C540.991 402.172 451.117 367.694 421.615 403.662C382.774 451.014 423.735 548.097 370.073 577.615C323.47 603.25 269.14 543.575 227.561 510.405C194.042 483.664 189.149 432.121 155.073 406.094C121.801 380.682 64.6709 397.69 37.8724 365.525C12.1927 334.702 27.2629 287.504 23.031 247.61C18.5224 205.106 -17.4449 152.47 11.9845 121.473C47.085 84.5029 114.634 121.188 161.687 101.568C190.596 89.5137 193.995 41.3146 224.191 32.9895C254.339 24.6774 281.862 64.1637 312.842 59.894C363.9 52.8573 402.754 -5.42009 453.849 1.33793C499.436 7.36741 554.213 46.0271 555.527 91.9923C557.153 148.903 461.349 174.354 460.421 231.28Z" fill="#F9F6E7"/>
</svg>
