<svg width="439" height="557" viewBox="0 0 439 557" fill="none" xmlns="http://www.w3.org/2000/svg">
<path fill-rule="evenodd" clip-rule="evenodd" d="M90.9243 100.239C143.138 103.042 169.183 0.818275 219.731 14.1972C264.703 26.1 226.896 114.625 261.738 145.449C307.608 186.029 406.152 148.719 433.647 203.444C457.526 250.971 395.865 303.037 361.167 343.349C333.195 375.848 281.505 378.814 254.225 411.896C227.589 444.196 242.454 501.921 209.311 527.501C177.552 552.013 130.949 535.193 90.9243 537.933C48.282 540.853 -5.65891 574.831 -35.5363 544.266C-71.1714 507.811 -31.9921 441.677 -49.8425 393.926C-60.8101 364.586 -108.849 359.392 -116.042 328.907C-123.223 298.469 -82.7376 272.439 -85.8486 241.321C-90.9756 190.036 -147.763 149.035 -139.103 98.2271C-131.377 52.8969 -90.701 -0.39989 -44.7188 0.00226204C12.213 0.500177 34.0722 97.1872 90.9243 100.239Z" fill="#F9F6E7"/>
</svg>
