<svg width="307" height="557" viewBox="0 0 307 557" fill="none" xmlns="http://www.w3.org/2000/svg">
<path fill-rule="evenodd" clip-rule="evenodd" d="M230.924 100.239C283.138 103.042 309.183 0.818275 359.731 14.1972C404.703 26.1 366.896 114.625 401.738 145.449C447.608 186.029 546.152 148.719 573.647 203.444C597.526 250.971 535.865 303.037 501.167 343.349C473.195 375.848 421.505 378.814 394.225 411.896C367.589 444.196 382.454 501.921 349.311 527.501C317.552 552.013 270.949 535.193 230.924 537.933C188.282 540.853 134.341 574.831 104.464 544.266C68.8286 507.811 108.008 441.677 90.1575 393.926C79.1899 364.586 31.1511 359.392 23.9583 328.907C16.7768 298.469 57.2624 272.439 54.1514 241.321C49.0244 190.036 -7.76285 149.035 0.896665 98.2271C8.62265 52.8969 49.299 -0.39989 95.2812 0.00226204C152.213 0.500177 174.072 97.1872 230.924 100.239Z" fill="#F9F6E7"/>
</svg>
