<svg width="747" height="501" viewBox="0 0 747 501" fill="none" xmlns="http://www.w3.org/2000/svg">
<g clip-path="url(#clip0_106_368)">
<path d="M724.823 485.203H20.8572V486.718H724.823V485.203Z" fill="#3F3D56"/>
<path d="M76.226 210.259L75.6357 211.655L724.014 485.834L724.604 484.438L76.226 210.259Z" fill="#3F3D56"/>
<path d="M724.823 210.133H20.8572V211.648H724.823V210.133Z" fill="#3F3D56"/>
<path d="M629.345 243.096C629.442 275.161 623.219 306.931 611.032 336.59C598.845 366.25 580.933 393.216 558.319 415.95C555.826 418.458 553.277 420.908 550.673 423.3C547.536 426.195 544.318 429.001 541.019 431.719C540.39 432.242 539.761 432.757 539.125 433.265C526.093 443.825 511.981 452.977 497.023 460.567C496.137 461.014 495.25 461.461 494.356 461.901C492.939 462.598 491.507 463.28 490.075 463.947C437.058 488.617 376.766 492.709 320.903 475.427C223.098 445.071 151.951 352.54 151.951 243.096C151.951 108.963 258.819 0.230957 390.648 0.230957C522.477 0.230957 629.345 108.963 629.345 243.096Z" fill="#C2A410"/>
<path d="M443.794 192.148L443.983 192.141L443.236 190.499C442.396 188.175 441.37 185.921 440.167 183.762L418.241 135.621C417.542 134.084 416.408 132.786 414.981 131.884C413.554 130.982 411.894 130.517 410.206 130.545L382.438 131.008C380.643 131.038 378.901 131.624 377.453 132.687C376.006 133.749 374.923 135.234 374.356 136.938L356.9 189.367C356.325 190.835 355.827 192.332 355.407 193.851L354.814 195.631L354.953 195.626C353.336 202.54 353.337 209.734 354.957 216.648C356.576 223.561 359.771 230.007 364.291 235.484C368.811 240.96 374.535 245.318 381.016 248.219C387.497 251.119 394.561 252.484 401.656 252.206C408.752 251.928 415.687 250.016 421.922 246.617C428.156 243.219 433.522 238.426 437.6 232.614C441.679 226.801 444.359 220.125 445.434 213.106C446.508 206.087 445.947 198.915 443.794 192.148H443.794Z" fill="#3F3D56"/>
<path d="M392.045 142.781L383.307 190.546L384.293 190.726L393.031 142.961L392.045 142.781Z" fill="#C2A410"/>
<path d="M402.545 142.605L401.565 142.818L411.88 190.268L412.859 190.055L402.545 142.605Z" fill="#C2A410"/>
<path d="M379.412 107.498L414.993 106.905C415.259 106.901 415.516 107.002 415.707 107.187C415.898 107.372 416.008 107.625 416.012 107.891C416.016 108.157 415.915 108.413 415.73 108.604C415.545 108.795 415.292 108.905 415.026 108.91L379.446 109.502C379.314 109.505 379.183 109.481 379.061 109.433C378.938 109.384 378.827 109.312 378.732 109.221C378.637 109.129 378.562 109.02 378.509 108.899C378.457 108.778 378.429 108.649 378.427 108.517C378.424 108.385 378.448 108.255 378.497 108.132C378.545 108.01 378.617 107.898 378.708 107.803C378.8 107.709 378.909 107.633 379.03 107.581C379.151 107.528 379.281 107.5 379.412 107.498Z" fill="#3F3D56"/>
<path d="M379.788 115.011L415.369 114.418C415.635 114.414 415.891 114.515 416.082 114.7C416.273 114.885 416.383 115.138 416.388 115.404C416.392 115.67 416.291 115.926 416.106 116.117C415.921 116.308 415.668 116.418 415.402 116.423L379.821 117.015C379.556 117.02 379.299 116.919 379.108 116.734C378.917 116.549 378.807 116.296 378.802 116.03C378.798 115.764 378.899 115.507 379.084 115.316C379.269 115.125 379.522 115.015 379.788 115.011Z" fill="#3F3D56"/>
<path d="M380.164 122.524L415.745 121.931C416.01 121.927 416.267 122.028 416.458 122.213C416.649 122.398 416.759 122.651 416.764 122.917C416.768 123.182 416.667 123.439 416.482 123.63C416.297 123.821 416.044 123.931 415.778 123.936L380.197 124.528C379.931 124.533 379.675 124.431 379.484 124.247C379.292 124.062 379.183 123.809 379.178 123.543C379.174 123.277 379.275 123.02 379.46 122.829C379.645 122.638 379.898 122.528 380.164 122.524Z" fill="#3F3D56"/>
<path d="M397.083 100.053C390.026 100.17 384.37 104.199 384.451 109.051L410.009 108.625C409.928 103.773 404.141 99.9351 397.083 100.053Z" fill="#3F3D56"/>
<path d="M401.016 197.6C402.411 197.694 403.732 198.259 404.764 199.201C405.028 199.42 405.288 199.65 405.549 199.88C406.373 200.741 407.383 201.402 408.502 201.812C410.951 202.481 413.368 200.544 415.409 198.562L416.108 199.28C413.864 201.461 411.175 203.581 408.238 202.78C406.969 202.333 405.821 201.597 404.885 200.631C404.632 200.408 404.38 200.185 404.124 199.973C403.287 199.278 401.669 198.197 400.231 198.758C399.634 199.049 399.103 199.458 398.67 199.962C398.335 200.314 397.973 200.64 397.587 200.937C396.797 201.497 395.859 201.812 394.891 201.841C393.923 201.869 392.969 201.611 392.147 201.099C391.852 200.902 391.567 200.689 391.295 200.46C390.849 200.018 390.294 199.702 389.686 199.544C388.834 199.425 388.06 200.033 387.24 200.676C386.464 201.43 385.473 201.923 384.403 202.085C384.367 202.087 384.331 202.088 384.294 202.089C382.297 202.122 381.03 200.124 380.246 198.605L381.137 198.146C382.202 200.21 383.229 201.152 384.351 201.084C385.209 200.919 386 200.502 386.621 199.887C387.57 199.143 388.552 198.373 389.824 198.551C390.617 198.724 391.345 199.115 391.926 199.681C392.17 199.886 392.424 200.078 392.689 200.255C393.341 200.654 394.096 200.855 394.861 200.832C395.626 200.81 396.368 200.565 396.996 200.127C397.34 199.861 397.662 199.569 397.961 199.253C398.488 198.648 399.138 198.161 399.866 197.824C400.233 197.681 400.623 197.605 401.016 197.6Z" fill="#C2A410"/>
<path d="M398.214 0H397.172V100.012H398.214V0Z" fill="#3F3D56"/>
<path d="M712.62 173.279C706.269 196.759 684.512 211.3 684.512 211.3C684.512 211.3 673.055 187.774 679.406 164.294C685.758 140.814 707.514 126.272 707.514 126.272C707.514 126.272 718.972 149.799 712.62 173.279Z" fill="#C2A410"/>
<path d="M654.837 173.279C661.189 196.759 682.945 211.3 682.945 211.3C682.945 211.3 694.403 187.774 688.051 164.294C681.7 140.814 659.943 126.272 659.943 126.272C659.943 126.272 648.485 149.799 654.837 173.279Z" fill="#C2A410"/>
<path d="M664.171 168.233C681.6 185.199 683.729 211.281 683.729 211.281C683.729 211.281 657.599 209.855 640.17 192.888C622.741 175.921 620.612 149.839 620.612 149.839C620.612 149.839 646.741 151.266 664.171 168.233Z" fill="#3F3D56"/>
<path d="M703.287 168.233C685.858 185.199 683.729 211.281 683.729 211.281C683.729 211.281 709.858 209.855 727.288 192.888C744.717 175.921 746.846 149.839 746.846 149.839C746.846 149.839 720.716 151.266 703.287 168.233Z" fill="#3F3D56"/>
<path d="M92.0087 447.591C85.6569 471.071 63.9008 485.613 63.9008 485.613C63.9008 485.613 52.4429 462.086 58.7946 438.606C65.1463 415.126 86.9025 400.584 86.9025 400.584C86.9025 400.584 98.3604 424.111 92.0087 447.591Z" fill="#C2A410"/>
<path d="M34.2254 447.591C40.5771 471.071 62.3333 485.613 62.3333 485.613C62.3333 485.613 73.7912 462.086 67.4395 438.606C61.0877 415.126 39.3316 400.584 39.3316 400.584C39.3316 400.584 27.8736 424.111 34.2254 447.591Z" fill="#C2A410"/>
<path d="M43.5589 442.545C60.9882 459.511 63.117 485.593 63.117 485.593C63.117 485.593 36.9874 484.167 19.5581 467.2C2.12885 450.233 0 424.151 0 424.151C0 424.151 26.1296 425.578 43.5589 442.545Z" fill="#3F3D56"/>
<path d="M82.6752 442.545C65.2459 459.511 63.1171 485.593 63.1171 485.593C63.1171 485.593 89.2467 484.167 106.676 467.2C124.105 450.233 126.234 424.151 126.234 424.151C126.234 424.151 100.104 425.578 82.6752 442.545Z" fill="#3F3D56"/>
<path d="M507.964 230.682C516.013 230.682 522.539 224.157 522.539 216.107C522.539 208.057 516.013 201.532 507.964 201.532C499.914 201.532 493.388 208.057 493.388 216.107C493.388 224.157 499.914 230.682 507.964 230.682Z" fill="#2F2E41"/>
<path d="M492.347 209.861C492.348 206.266 493.677 202.798 496.079 200.123C498.481 197.449 501.787 195.757 505.361 195.372C503.325 195.149 501.266 195.358 499.317 195.985C497.367 196.612 495.572 197.642 494.048 199.009C492.523 200.376 491.304 202.049 490.469 203.919C489.634 205.788 489.203 207.813 489.203 209.861C489.203 211.908 489.634 213.933 490.469 215.802C491.304 217.672 492.523 219.345 494.048 220.712C495.572 222.079 497.367 223.109 499.317 223.736C501.266 224.363 503.325 224.572 505.361 224.35C501.787 223.965 498.481 222.272 496.079 219.598C493.677 216.923 492.348 213.455 492.347 209.861Z" fill="#2F2E41"/>
<path d="M493.388 216.107C493.388 216.107 491.125 226.518 505.27 230.682L493.388 216.107Z" fill="#C2A410"/>
<path d="M513.992 315.108C541.015 315.108 562.923 293.201 562.923 266.177C562.923 239.153 541.015 217.246 513.992 217.246C486.968 217.246 465.061 239.153 465.061 266.177C465.061 293.201 486.968 315.108 513.992 315.108Z" fill="#2F2E41"/>
<path d="M541.019 431.719C540.39 432.242 539.761 432.757 539.125 433.265C526.093 443.826 511.981 452.977 497.023 460.567C496.137 461.015 495.25 461.462 494.356 461.901C492.939 462.598 491.507 463.28 490.075 463.947L464.992 455.589L465.28 449.58V449.557L466.372 426.642L466.743 418.807L541.019 431.719Z" fill="#A0616A"/>
<path d="M494.356 461.901C492.939 462.598 491.507 463.28 490.075 463.947C480.277 468.528 470.171 472.42 459.832 475.594C459.78 475.443 459.749 475.284 459.741 475.124L464.992 449.458L465.28 449.58L494.356 461.901Z" fill="#2F2E41"/>
<path d="M501.777 318.091C519.673 318.091 534.181 303.583 534.181 285.687C534.181 267.791 519.673 253.284 501.777 253.284C483.882 253.284 469.374 267.791 469.374 285.687C469.374 303.583 483.882 318.091 501.777 318.091Z" fill="#A0616A"/>
<path d="M528.051 287.439C528.051 287.439 533.305 313.712 542.939 319.842L489.517 382.898L469.374 363.631L484.262 337.358C484.262 337.358 500.902 327.724 495.647 314.588L528.051 287.439Z" fill="#A0616A"/>
<path d="M591.449 374.455C581.953 389.454 570.844 403.369 558.319 415.95C557.781 404.205 556.614 394.52 554.326 391.656C554.32 391.655 554.314 391.653 554.311 391.648L526.296 382.896C526.296 382.896 532.426 325.094 547.316 322.472C547.316 322.472 549.476 322.911 552.833 323.927C563.654 327.185 586.887 336.369 590.229 355.745C591.179 361.934 591.587 368.195 591.449 374.455Z" fill="#A0616A"/>
<path d="M484.262 337.358C484.262 337.358 457.989 336.482 441.349 357.501C424.71 378.519 384.424 394.283 384.424 394.283L283.711 433.693C283.711 433.693 265.32 401.289 253.935 412.674C242.55 424.059 274.953 452.96 289.841 449.457C304.729 445.953 394.934 418.805 394.934 418.805L466.747 386.401L484.262 337.358Z" fill="#A0616A"/>
<path d="M554.326 391.656L550.673 423.3C547.536 426.195 544.318 429.001 541.019 431.719C540.39 432.242 539.761 432.757 539.125 433.265C513.838 425.513 474.214 426.377 466.372 426.642C465.477 426.665 464.992 426.687 464.992 426.687L464.121 408.296C455.717 405.5 452.959 399.385 452.883 392.656C452.754 380.456 461.491 366.255 461.491 366.255C463.06 364.687 474.783 342.462 477.208 337.854C477.488 337.316 477.647 337.021 477.647 337.021L488.157 334.399C488.157 334.399 488.127 334.482 488.066 334.634C487.127 337.263 478.958 361.05 493.022 361.876C506.859 362.694 536.958 323.836 541.103 318.387C541.413 317.978 541.58 317.758 541.58 317.758L552.969 323.889C552.924 323.904 552.878 323.911 552.833 323.927C545.876 325.859 539.435 342.613 539.435 342.613C521.272 374.621 553.515 391.247 554.31 391.648C554.314 391.653 554.32 391.655 554.326 391.656Z" fill="#D0CDE1"/>
<path d="M503.538 247.652C486.289 247.652 472.305 255.809 472.305 265.871C472.305 270.374 475.116 274.488 479.756 277.667L485.768 273.31L484.133 280.136C484.812 280.45 485.504 280.754 486.227 281.036L495.209 270.556V283.43C497.963 283.871 500.748 284.092 503.538 284.09C520.787 284.09 534.77 275.933 534.77 265.871C534.77 255.809 520.787 247.652 503.538 247.652Z" fill="#2F2E41"/>
<path d="M567.516 253.452C575.566 253.452 582.091 246.927 582.091 238.877C582.091 230.827 575.566 224.302 567.516 224.302C559.466 224.302 552.941 230.827 552.941 238.877C552.941 246.927 559.466 253.452 567.516 253.452Z" fill="#2F2E41"/>
<path d="M551.9 232.63C551.9 229.036 553.229 225.568 555.631 222.893C558.033 220.219 561.339 218.526 564.913 218.141C564.395 218.085 563.873 218.056 563.352 218.055C561.37 218.052 559.408 218.454 557.587 219.234C555.766 220.015 554.123 221.159 552.759 222.597C551.395 224.034 550.338 225.735 549.653 227.594C548.968 229.454 548.67 231.434 548.776 233.412C548.883 235.391 549.391 237.328 550.271 239.103C551.151 240.879 552.384 242.456 553.895 243.739C555.405 245.022 557.161 245.983 559.056 246.565C560.95 247.146 562.943 247.335 564.913 247.119C561.339 246.734 558.033 245.042 555.631 242.367C553.229 239.693 551.9 236.225 551.9 232.63Z" fill="#2F2E41"/>
<path d="M552.941 238.877C552.941 238.877 550.677 249.288 564.822 253.452L552.941 238.877Z" fill="#C2A410"/>
<path d="M535.495 288.753C536.892 288.753 538.025 286.204 538.025 283.06C538.025 279.916 536.892 277.368 535.495 277.368C534.097 277.368 532.965 279.916 532.965 283.06C532.965 286.204 534.097 288.753 535.495 288.753Z" fill="#A0616A"/>
<path d="M256.263 305.082L217.861 314.386L217.736 314.416L213.562 318.195L212.36 319.281L209.785 318.815L205.225 317.991L208.403 307.267L208.998 286.812L206.814 274.301L218.928 265.96C218.928 265.96 242.56 264.57 256.263 305.082Z" fill="#D0CDE1"/>
<path opacity="0.1" d="M217.861 314.386C217.341 315.496 218.431 314.764 217.836 315.906L212.275 317.693L209.785 318.815L205.225 317.991L208.403 307.267L208.998 286.812L206.814 274.301L218.928 265.96C218.928 265.96 231.93 284.373 217.861 314.386Z" fill="black"/>
<path d="M301.542 275.691C301.542 275.691 251.1 299.125 230.645 302.699C210.19 306.274 211.977 326.729 211.977 326.729L326.564 308.856C326.564 308.856 322.592 290.387 301.542 275.691Z" fill="#D0CDE1"/>
<path d="M204.232 271.719C204.232 271.719 212.97 292.968 203.239 319.381L214.559 324.544L218.928 319.381L219.027 318.884L207.012 317.792C207.012 317.792 216.942 291.181 208.8 272.712C208.8 272.712 207.012 268.74 204.232 271.719Z" fill="#C2A410"/>
<path d="M370.85 429.202C326.167 419.272 284.562 439.826 284.562 439.826L284.449 439.725L267.88 424.932L203.14 319.282L218.928 319.381C262.816 293.167 324.578 296.742 324.578 296.742C351.189 326.927 370.85 429.202 370.85 429.202Z" fill="#3F3D56"/>
<path opacity="0.1" d="M284.449 439.725L267.88 424.932L203.14 319.281L218.928 319.381C218.928 319.381 281.853 402.489 284.449 439.725Z" fill="black"/>
<path d="M291.72 357.291C305.247 353.142 314.074 342.808 311.437 334.21C308.8 325.612 295.697 322.005 282.17 326.154C268.643 330.302 259.816 340.636 262.453 349.234C265.09 357.833 278.194 361.44 291.72 357.291Z" fill="#D0CDE1"/>
<path d="M21.0609 224.415C29.0125 224.415 35.4585 217.969 35.4585 210.017C35.4585 202.066 29.0125 195.62 21.0609 195.62C13.1093 195.62 6.66333 202.066 6.66333 210.017C6.66333 217.969 13.1093 224.415 21.0609 224.415Z" fill="#3F3D56"/>
<path d="M724.269 501C732.221 501 738.667 494.554 738.667 486.602C738.667 478.651 732.221 472.205 724.269 472.205C716.318 472.205 709.872 478.651 709.872 486.602C709.872 494.554 716.318 501 724.269 501Z" fill="#3F3D56"/>
<path d="M83.9556 222.899C90.2332 222.899 95.3221 217.81 95.3221 211.533C95.3221 205.255 90.2332 200.166 83.9556 200.166C77.6781 200.166 72.5891 205.255 72.5891 211.533C72.5891 217.81 77.6781 222.899 83.9556 222.899Z" fill="#C2A410"/>
<path d="M724.269 222.899C730.547 222.899 735.636 217.81 735.636 211.533C735.636 205.255 730.547 200.166 724.269 200.166C717.992 200.166 712.903 205.255 712.903 211.533C712.903 217.81 717.992 222.899 724.269 222.899Z" fill="#C2A410"/>
<path d="M21.0609 496.453C27.3384 496.453 32.4274 491.365 32.4274 485.087C32.4274 478.809 27.3384 473.72 21.0609 473.72C14.7833 473.72 9.69434 478.809 9.69434 485.087C9.69434 491.365 14.7833 496.453 21.0609 496.453Z" fill="#C2A410"/>
</g>
<defs>
<clipPath id="clip0_106_368">
<rect width="746.846" height="501" fill="white"/>
</clipPath>
</defs>
</svg>
