<svg width="19" height="19" viewBox="0 0 19 19" fill="none" xmlns="http://www.w3.org/2000/svg">
<path d="M18.5545 17.0395L15.1556 13.6505C16.2522 12.2535 16.8473 10.5282 16.8451 8.75213C16.8451 7.17039 16.376 5.62417 15.4973 4.309C14.6185 2.99383 13.3695 1.96878 11.9081 1.36347C10.4468 0.758165 8.83877 0.599789 7.28743 0.908372C5.73608 1.21695 4.31107 1.97863 3.19261 3.09709C2.07415 4.21555 1.31247 5.64056 1.00389 7.19191C0.695309 8.74325 0.853685 10.3513 1.45899 11.8126C2.0643 13.2739 3.08935 14.523 4.40452 15.4017C5.71969 16.2805 7.26591 16.7495 8.84765 16.7495C10.6237 16.7518 12.349 16.1567 13.7461 15.0601L17.135 18.459C17.2279 18.5527 17.3385 18.6271 17.4603 18.6778C17.5821 18.7286 17.7128 18.7547 17.8447 18.7547C17.9767 18.7547 18.1074 18.7286 18.2292 18.6778C18.351 18.6271 18.4616 18.5527 18.5545 18.459C18.6482 18.3661 18.7226 18.2555 18.7733 18.1337C18.8241 18.0119 18.8502 17.8812 18.8502 17.7492C18.8502 17.6173 18.8241 17.4866 18.7733 17.3648C18.7226 17.243 18.6482 17.1324 18.5545 17.0395ZM2.84958 8.75213C2.84958 7.56582 3.20136 6.40616 3.86044 5.41978C4.51951 4.4334 5.45628 3.66461 6.55229 3.21063C7.64829 2.75665 8.8543 2.63787 10.0178 2.86931C11.1813 3.10075 12.2501 3.67201 13.0889 4.51085C13.9278 5.3497 14.499 6.41845 14.7305 7.58196C14.9619 8.74547 14.8431 9.95148 14.3891 11.0475C13.9352 12.1435 13.1664 13.0803 12.18 13.7393C11.1936 14.3984 10.034 14.7502 8.84765 14.7502C7.25686 14.7502 5.73123 14.1183 4.60637 12.9934C3.48152 11.8685 2.84958 10.3429 2.84958 8.75213Z" fill="#C2A410"/>
</svg>
