<svg width="270" height="218" viewBox="0 0 270 218" fill="none" xmlns="http://www.w3.org/2000/svg">
<g clip-path="url(#clip0_115_269)">
<path d="M98.2493 164.919C97.4319 162.96 97.342 160.773 97.9961 158.753C98.6501 156.734 100.005 155.015 101.816 153.907C102.418 153.54 101.867 152.59 101.261 152.959C99.1844 154.199 97.6343 156.158 96.9045 158.464C96.1747 160.77 96.3158 163.264 97.3011 165.473C97.5782 166.121 98.5244 165.562 98.2493 164.919H98.2493Z" fill="#3F3D56"/>
<path d="M98.5633 166.396C97.0823 163.772 97.4308 160.632 97.9635 157.795C98.5196 154.833 99.2486 151.825 98.6178 148.813C98.3318 147.35 97.6547 145.992 96.6585 144.884C96.1788 144.363 95.4039 145.141 95.8821 145.66C97.7447 147.683 97.9606 150.618 97.6585 153.224C97.3022 156.298 96.2923 159.294 96.4177 162.418C96.4505 164.002 96.861 165.556 97.6152 166.95C97.6912 167.07 97.8111 167.156 97.9495 167.19C98.0879 167.224 98.234 167.203 98.357 167.131C98.48 167.059 98.5703 166.942 98.6088 166.805C98.6473 166.668 98.631 166.521 98.5633 166.396L98.5633 166.396Z" fill="#3F3D56"/>
<path d="M106.512 174.774H87.8446C87.4079 174.774 86.9893 174.6 86.6805 174.291C86.3717 173.983 86.198 173.564 86.1975 173.127V167.644C86.1991 166.235 86.7596 164.884 87.7559 163.888C88.7522 162.892 90.1031 162.331 91.512 162.33H94.25C94.3955 162.329 94.5351 162.272 94.638 162.169C94.7409 162.066 94.7988 161.926 94.799 161.781V159.218C94.7993 158.976 94.8958 158.743 95.0673 158.572C95.2389 158.4 95.4714 158.304 95.714 158.303H98.6422C98.8848 158.304 99.1174 158.4 99.2889 158.572C99.4604 158.743 99.5569 158.976 99.5572 159.218V161.781C99.5574 161.926 99.6153 162.066 99.7182 162.169C99.8211 162.272 99.9607 162.329 100.106 162.33H102.844C104.253 162.331 105.604 162.892 106.6 163.888C107.597 164.884 108.157 166.235 108.159 167.644V173.127C108.158 173.564 107.985 173.983 107.676 174.291C107.367 174.6 106.948 174.774 106.512 174.774Z" fill="#CCCCCC"/>
<path d="M97.4651 141.847C97.8581 143.933 97.3715 145.776 96.3782 145.963C95.385 146.15 94.2612 144.611 93.8681 142.525C93.4751 140.439 94.6839 136.97 94.6839 136.97C94.6839 136.97 97.072 139.761 97.4651 141.847Z" fill="#C2A410"/>
<path d="M105.003 151.551C103.758 153.27 102.086 154.184 101.267 153.591C100.448 152.998 100.793 151.124 102.038 149.405C103.283 147.685 106.633 146.179 106.633 146.179C106.633 146.179 106.248 149.832 105.003 151.551Z" fill="#C2A410"/>
<path d="M63.8433 33.1517C63.0258 31.1927 62.936 29.0059 63.5901 26.9864C64.2441 24.9669 65.5988 23.2479 67.4095 22.14C68.0124 21.7734 67.4613 20.8234 66.8553 21.1918C64.7784 22.432 63.2283 24.3905 62.4985 26.6968C61.7687 29.003 61.9098 31.4968 62.8951 33.7059C63.1722 34.3537 64.1184 33.7949 63.8433 33.1517H63.8433Z" fill="#3F3D56"/>
<path d="M64.1575 34.6286C62.6765 32.0048 63.025 28.8649 63.5577 26.0275C64.1138 23.0656 64.8428 20.0582 64.2121 17.0458C63.926 15.5832 63.2489 14.2255 62.2528 13.117C61.7731 12.596 60.9981 13.3741 61.4763 13.8935C63.3389 15.9164 63.5549 18.8511 63.2528 21.4574C62.8965 24.5315 61.8866 27.527 62.0119 30.6507C62.0447 32.2352 62.4552 33.7889 63.2094 35.1828C63.2855 35.3033 63.4053 35.3895 63.5437 35.4233C63.6821 35.457 63.8283 35.4357 63.9513 35.3638C64.0743 35.2919 64.1645 35.1751 64.203 35.0379C64.2415 34.9007 64.2252 34.754 64.1575 34.6286L64.1575 34.6286Z" fill="#3F3D56"/>
<path d="M72.1058 43.0073H53.4388C53.0021 43.0068 52.5835 42.8331 52.2747 42.5243C51.9659 42.2155 51.7922 41.7969 51.7917 41.3602V35.8771C51.7934 34.4681 52.3538 33.1173 53.3501 32.121C54.3464 31.1247 55.6972 30.5642 57.1062 30.5626H59.8442C59.9897 30.5625 60.1293 30.5046 60.2322 30.4016C60.3351 30.2987 60.393 30.1592 60.3932 30.0136V27.4515C60.3935 27.2089 60.49 26.9763 60.6615 26.8047C60.8331 26.6332 61.0656 26.5367 61.3083 26.5364H64.2364C64.479 26.5367 64.7116 26.6332 64.8831 26.8047C65.0547 26.9763 65.1512 27.2089 65.1515 27.4515V30.0136C65.1516 30.1592 65.2095 30.2987 65.3124 30.4016C65.4154 30.5046 65.5549 30.5625 65.7005 30.5626H68.4384C69.8474 30.5642 71.1982 31.1247 72.1945 32.121C73.1909 33.1173 73.7513 34.4681 73.7529 35.8771V41.3602C73.7524 41.7969 73.5787 42.2155 73.2699 42.5243C72.9612 42.8331 72.5425 43.0068 72.1058 43.0073Z" fill="#CCCCCC"/>
<path d="M63.0593 10.08C63.4523 12.1659 62.9657 14.0085 61.9725 14.1956C60.9792 14.3828 59.8554 12.8436 59.4624 10.7578C59.0694 8.67192 60.2781 5.20338 60.2781 5.20338C60.2781 5.20338 62.6663 7.99418 63.0593 10.08Z" fill="#C2A410"/>
<path d="M70.5969 19.7841C69.3523 21.5034 67.6797 22.4168 66.8609 21.8241C66.0422 21.2314 66.3874 19.3572 67.6321 17.6378C68.8767 15.9185 72.2266 14.4119 72.2266 14.4119C72.2266 14.4119 71.8416 18.0647 70.5969 19.7841Z" fill="#C2A410"/>
<path d="M26.7194 99.5573H11.7126V105.048H26.7194V99.5573Z" fill="#C2A410"/>
<path d="M26.7194 117.492H11.7126V122.983H26.7194V117.492Z" fill="#C2A410"/>
<path d="M118.224 217.05H6.22233C4.57263 217.048 2.99104 216.392 1.82452 215.225C0.658011 214.059 0.0018494 212.477 0 210.827V6.22233C0.0018494 4.57263 0.658011 2.99104 1.82452 1.82452C2.99104 0.658011 4.57263 0.0018494 6.22233 0H118.224C119.874 0.00185713 121.456 0.658018 122.622 1.82453C123.789 2.99104 124.445 4.57264 124.447 6.22233V210.827C124.445 212.477 123.789 214.059 122.622 215.225C121.456 216.392 119.874 217.048 118.224 217.05ZM6.22233 0.732039C4.76672 0.733686 3.3712 1.31265 2.34193 2.34192C1.31266 3.3712 0.733686 4.76672 0.732039 6.22233V210.827C0.733686 212.283 1.31266 213.678 2.34193 214.708C3.3712 215.737 4.76672 216.316 6.22233 216.318H118.224C119.68 216.316 121.075 215.737 122.105 214.708C123.134 213.678 123.713 212.283 123.715 210.827V6.22233C123.713 4.76672 123.134 3.3712 122.105 2.34192C121.075 1.31265 119.68 0.733686 118.224 0.732039H6.22233Z" fill="#3F3D56"/>
<path d="M124.081 42.2579H0.365967V42.99H124.081V42.2579Z" fill="#3F3D56"/>
<path d="M124.081 86.1919H0.365967V86.9239H124.081V86.1919Z" fill="#3F3D56"/>
<path d="M124.081 130.126H0.365967V130.858H124.081V130.126Z" fill="#3F3D56"/>
<path d="M124.081 174.06H0.365967V174.792H124.081V174.06Z" fill="#3F3D56"/>
<path d="M25.6214 131.035H13.1768C12.6916 131.034 12.2264 130.841 11.8833 130.498C11.5402 130.155 11.3472 129.69 11.3467 129.205V93.701C11.3472 93.2158 11.5402 92.7506 11.8833 92.4075C12.2264 92.0644 12.6916 91.8715 13.1768 91.8709H25.6214C26.1066 91.8715 26.5718 92.0644 26.9149 92.4075C27.258 92.7506 27.451 93.2158 27.4515 93.701V129.205C27.451 129.69 27.258 130.155 26.9149 130.498C26.5718 130.841 26.1066 131.034 25.6214 131.035ZM13.1768 92.6029C12.8857 92.6033 12.6066 92.7191 12.4007 92.9249C12.1948 93.1308 12.079 93.4099 12.0787 93.701V129.205C12.079 129.496 12.1948 129.775 12.4007 129.981C12.6066 130.187 12.8857 130.303 13.1768 130.303H25.6214C25.9126 130.303 26.1917 130.187 26.3975 129.981C26.6034 129.775 26.7192 129.496 26.7195 129.205V93.701C26.7192 93.4099 26.6034 93.1308 26.3975 92.9249C26.1917 92.7191 25.9126 92.6033 25.6214 92.6029H13.1768Z" fill="#3F3D56"/>
<path d="M49.7788 99.5573H34.772V105.048H49.7788V99.5573Z" fill="#C2A410"/>
<path d="M49.7788 117.492H34.772V122.983H49.7788V117.492Z" fill="#C2A410"/>
<path d="M48.6805 131.035H36.2359C35.7507 131.034 35.2855 130.841 34.9424 130.498C34.5993 130.155 34.4063 129.69 34.4058 129.205V93.701C34.4063 93.2158 34.5993 92.7506 34.9424 92.4075C35.2855 92.0644 35.7507 91.8715 36.2359 91.8709H48.6805C49.1657 91.8715 49.6309 92.0644 49.974 92.4075C50.3171 92.7506 50.5101 93.2158 50.5106 93.701V129.205C50.5101 129.69 50.3171 130.155 49.974 130.498C49.6309 130.841 49.1657 131.034 48.6805 131.035ZM36.2359 92.6029C35.9447 92.6033 35.6656 92.7191 35.4598 92.9249C35.2539 93.1308 35.1381 93.4099 35.1378 93.701V129.205C35.1381 129.496 35.2539 129.775 35.4598 129.981C35.6656 130.187 35.9447 130.303 36.2359 130.303H48.6805C48.9716 130.303 49.2507 130.187 49.4566 129.981C49.6625 129.775 49.7783 129.496 49.7786 129.205V93.701C49.7783 93.4099 49.6625 93.1308 49.4566 92.9249C49.2507 92.7191 48.9716 92.6033 48.6805 92.6029H36.2359Z" fill="#3F3D56"/>
<path d="M86.3806 55.2689H71.3738V60.7592H86.3806V55.2689Z" fill="#C2A410"/>
<path d="M86.3806 73.2039H71.3738V78.6942H86.3806V73.2039Z" fill="#C2A410"/>
<path d="M85.2826 86.7466H72.8379C72.3527 86.7461 71.8875 86.5531 71.5445 86.21C71.2014 85.8669 71.0084 85.4017 71.0078 84.9165V49.4126C71.0084 48.9274 71.2014 48.4623 71.5445 48.1192C71.8875 47.7761 72.3527 47.5831 72.8379 47.5825H85.2826C85.7678 47.5831 86.233 47.7761 86.576 48.1192C86.9191 48.4623 87.1121 48.9274 87.1127 49.4126V84.9165C87.1121 85.4017 86.9191 85.8669 86.576 86.21C86.233 86.5531 85.7678 86.7461 85.2826 86.7466ZM72.8379 48.3146C72.5468 48.3149 72.2677 48.4307 72.0618 48.6366C71.856 48.8424 71.7402 49.1215 71.7399 49.4126V84.9165C71.7402 85.2077 71.856 85.4868 72.0618 85.6926C72.2677 85.8985 72.5468 86.0143 72.8379 86.0146H85.2826C85.5737 86.0143 85.8528 85.8985 86.0587 85.6926C86.2645 85.4868 86.3803 85.2077 86.3806 84.9165V49.4126C86.3803 49.1215 86.2645 48.8424 86.0587 48.6365C85.8528 48.4307 85.5737 48.3149 85.2826 48.3146H72.8379Z" fill="#3F3D56"/>
<path d="M109.44 55.2689H94.4331V60.7592H109.44V55.2689Z" fill="#C2A410"/>
<path d="M109.44 73.2039H94.4331V78.6942H109.44V73.2039Z" fill="#C2A410"/>
<path d="M108.342 86.7466H95.897C95.4118 86.7461 94.9466 86.5531 94.6035 86.21C94.2604 85.8669 94.0674 85.4017 94.0669 84.9165V49.4126C94.0674 48.9274 94.2604 48.4623 94.6035 48.1192C94.9466 47.7761 95.4118 47.5831 95.897 47.5825H108.342C108.827 47.5831 109.292 47.7761 109.635 48.1192C109.978 48.4623 110.171 48.9274 110.172 49.4126V84.9165C110.171 85.4017 109.978 85.8669 109.635 86.21C109.292 86.5531 108.827 86.7461 108.342 86.7466ZM95.897 48.3146C95.6059 48.3149 95.3268 48.4307 95.1209 48.6365C94.915 48.8424 94.7993 49.1215 94.7989 49.4126V84.9165C94.7993 85.2077 94.915 85.4868 95.1209 85.6926C95.3268 85.8985 95.6059 86.0143 95.897 86.0146H108.342C108.633 86.0143 108.912 85.8985 109.118 85.6926C109.324 85.4868 109.439 85.2077 109.44 84.9165V49.4126C109.439 49.1215 109.324 48.8424 109.118 48.6365C108.912 48.4307 108.633 48.3149 108.342 48.3146H95.897Z" fill="#3F3D56"/>
<path d="M68.1857 96.2785L54.1379 101.557L56.0692 106.697L70.1169 101.418L68.1857 96.2785Z" fill="#C2A410"/>
<path d="M74.4943 113.067L60.4465 118.346L62.3778 123.485L76.4255 118.207L74.4943 113.067Z" fill="#C2A410"/>
<path d="M65.9363 130.626C65.5641 130.625 65.201 130.511 64.8951 130.299C64.5893 130.087 64.3552 129.787 64.2241 129.439L51.7354 96.2038C51.5653 95.7494 51.5824 95.2461 51.7829 94.8043C51.9833 94.3625 52.3508 94.0182 52.8048 93.847L64.4542 89.4696C64.6792 89.385 64.9186 89.3456 65.1588 89.3536C65.399 89.3615 65.6353 89.4168 65.8542 89.5161C66.0731 89.6154 66.2702 89.7569 66.4344 89.9324C66.5986 90.1079 66.7266 90.3141 66.8111 90.5391L79.2998 123.774C79.4699 124.228 79.4528 124.732 79.2523 125.173C79.0519 125.615 78.6844 125.959 78.2304 126.131H78.2304L66.581 130.508C66.375 130.586 66.1565 130.626 65.9363 130.626ZM65.0986 90.084C64.9664 90.0842 64.8354 90.1082 64.7117 90.1548L53.0624 94.5322C52.79 94.635 52.5694 94.8416 52.4492 95.1067C52.3289 95.3718 52.3186 95.6738 52.4207 95.9464L64.9094 129.181C64.9601 129.316 65.0369 129.44 65.1354 129.545C65.2339 129.651 65.3522 129.735 65.4835 129.795C65.6149 129.855 65.7566 129.888 65.9007 129.892C66.0449 129.897 66.1885 129.874 66.3235 129.823L77.9729 125.445C78.2453 125.343 78.4658 125.136 78.5861 124.871C78.7064 124.606 78.7166 124.304 78.6145 124.031L66.1258 90.7964C66.0471 90.5875 65.9067 90.4074 65.7232 90.2802C65.5397 90.1529 65.3219 90.0845 65.0986 90.084Z" fill="#3F3D56"/>
<path d="M17.6752 52.7221L3.62744 58.0009L5.55868 63.1403L19.6064 57.8616L17.6752 52.7221Z" fill="#C2A410"/>
<path d="M23.9838 69.5109L9.93604 74.7896L11.8673 79.929L25.915 74.6503L23.9838 69.5109Z" fill="#C2A410"/>
<path d="M15.4256 87.0698C15.0534 87.069 14.6902 86.955 14.3844 86.7429C14.0785 86.5308 13.8445 86.2307 13.7134 85.8823L1.2247 52.6475C1.0546 52.1931 1.07166 51.6898 1.27212 51.248C1.47258 50.8062 1.84008 50.4619 2.29403 50.2907L13.9435 45.9133C14.1684 45.8287 14.4079 45.7893 14.6481 45.7973C14.8883 45.8052 15.1246 45.8605 15.3435 45.9598C15.5623 46.0591 15.7595 46.2005 15.9237 46.3761C16.0878 46.5516 16.2158 46.7577 16.3003 46.9827L28.789 80.2176C28.9591 80.672 28.9421 81.1753 28.7416 81.6171C28.5411 82.0589 28.1736 82.4032 27.7197 82.5744H27.7196L16.0702 86.9518C15.8642 87.0296 15.6458 87.0696 15.4256 87.0698ZM14.5878 46.5277C14.4557 46.5279 14.3246 46.5519 14.201 46.5985L2.55161 50.9759C2.27921 51.0787 2.05869 51.2852 1.9384 51.5504C1.81811 51.8155 1.80788 52.1175 1.90996 52.3901L14.3986 85.625C14.4493 85.76 14.5261 85.8837 14.6247 85.989C14.7232 86.0943 14.8415 86.1791 14.9728 86.2387C15.1041 86.2983 15.2459 86.3314 15.39 86.3362C15.5341 86.341 15.6778 86.3173 15.8128 86.2666L27.4621 81.8892C27.7345 81.7864 27.955 81.5799 28.0753 81.3147C28.1956 81.0496 28.2058 80.7476 28.1038 80.475L15.6151 47.2401C15.5364 47.0312 15.396 46.8511 15.2125 46.7238C15.029 46.5966 14.8111 46.5282 14.5878 46.5277Z" fill="#3F3D56"/>
<path d="M229.494 91.5049C235.761 91.5049 240.841 86.4248 240.841 80.1583C240.841 73.8917 235.761 68.8117 229.494 68.8117C223.228 68.8117 218.147 73.8917 218.147 80.1583C218.147 86.4248 223.228 91.5049 229.494 91.5049Z" fill="#2F2E41"/>
<path d="M179.086 131.939C179.622 132.147 180.197 132.235 180.771 132.196C181.344 132.157 181.902 131.994 182.406 131.716C182.909 131.438 183.345 131.054 183.684 130.589C184.023 130.125 184.255 129.592 184.366 129.027L215.564 109.343L209.886 102.95L180.991 124.322C180.031 124.2 179.059 124.434 178.26 124.98C177.461 125.526 176.89 126.346 176.655 127.285C176.42 128.224 176.538 129.216 176.986 130.074C177.434 130.932 178.182 131.596 179.086 131.939Z" fill="#FFB8B8"/>
<path d="M209.051 114.577C208.775 114.577 208.503 114.508 208.26 114.376C208.018 114.244 207.812 114.053 207.662 113.821L204.049 108.207C203.822 107.853 203.738 107.424 203.816 107.01C203.894 106.596 204.128 106.228 204.47 105.981L216.559 97.2429C217.146 96.8189 217.812 96.5168 218.517 96.3545C219.223 96.1923 219.953 96.1732 220.666 96.2983C221.379 96.4235 222.06 96.6903 222.668 97.0831C223.276 97.4759 223.799 97.9867 224.206 98.5852C224.613 99.1836 224.896 99.8577 225.038 100.567C225.18 101.277 225.178 102.008 225.033 102.717C224.888 103.426 224.601 104.099 224.191 104.696C223.781 105.292 223.256 105.8 222.646 106.19L209.935 114.318C209.671 114.487 209.364 114.577 209.051 114.577Z" fill="#2F2E41"/>
<path d="M214.449 212.602L209.962 212.602L207.827 195.294L214.45 195.294L214.449 212.602Z" fill="#FFB8B8"/>
<path d="M206.756 211.32H215.41V216.769H201.307C201.307 216.053 201.448 215.345 201.722 214.684C201.996 214.023 202.397 213.422 202.903 212.916C203.409 212.41 204.01 212.009 204.671 211.735C205.332 211.461 206.04 211.32 206.756 211.32Z" fill="#2F2E41"/>
<path d="M235.397 209.247L231.077 210.46L224.343 194.374L230.719 192.583L235.397 209.247Z" fill="#FFB8B8"/>
<path d="M227.645 210.092L235.977 207.753L237.449 212.999L223.871 216.811C223.678 216.122 223.622 215.402 223.707 214.691C223.792 213.981 224.016 213.294 224.366 212.67C224.717 212.046 225.187 211.497 225.749 211.055C226.312 210.613 226.956 210.286 227.645 210.092Z" fill="#2F2E41"/>
<path d="M247.487 182.685L230.066 162.126L240.638 149.299C240.793 149.111 240.987 148.959 241.208 148.856C241.429 148.752 241.67 148.699 241.913 148.699C242.157 148.7 242.398 148.755 242.618 148.86C242.838 148.965 243.032 149.117 243.185 149.306L259.181 168.937L247.487 182.685Z" fill="#C2A410"/>
<path d="M230.77 162.279C231.026 161.816 231.345 161.391 231.716 161.015L241.806 150.785C242.202 150.382 242.734 150.143 243.298 150.115C244.451 150.061 246.342 150.178 246.869 151.442L233.246 162.588L230.77 162.279Z" fill="#F2F2F2"/>
<path d="M248.093 187.036C247.316 187.012 246.561 186.773 245.913 186.345L245.865 186.295L229.909 161.893L232.557 161.637L246.746 150.569C246.925 150.43 247.131 150.329 247.351 150.272C247.572 150.216 247.801 150.206 248.025 150.243C248.249 150.279 248.464 150.362 248.654 150.486C248.845 150.609 249.008 150.771 249.133 150.96L264.644 174.436C264.882 174.798 264.968 175.24 264.883 175.665C264.798 176.091 264.55 176.466 264.191 176.709L249.182 186.83C248.835 186.967 248.466 187.037 248.093 187.036Z" fill="#C2A410"/>
<path d="M242.45 170.343C242.3 170.343 242.152 170.307 242.019 170.236C241.887 170.166 241.774 170.064 241.69 169.94L239.857 167.217C239.721 167.015 239.672 166.769 239.718 166.53C239.765 166.292 239.904 166.082 240.105 165.947L249.508 159.616C249.71 159.481 249.957 159.431 250.195 159.478C250.433 159.524 250.643 159.663 250.778 159.864L252.611 162.587C252.747 162.788 252.796 163.035 252.75 163.273C252.703 163.511 252.564 163.721 252.363 163.857L242.96 170.188C242.809 170.289 242.632 170.343 242.45 170.343Z" fill="#3F3D56"/>
<path d="M207.117 209.985C206.616 209.983 206.134 209.794 205.766 209.455C205.398 209.116 205.169 208.652 205.126 208.153C204.327 199.081 200.321 153.36 199.882 144.127C199.393 133.867 207.931 117.637 208.018 117.475L208.077 117.363L212.297 117.89V118.381L216.314 118.854L224.087 119.606L226.313 146.808L227.297 165.256L236.542 202.936C236.647 203.353 236.583 203.795 236.365 204.165C236.147 204.536 235.792 204.806 235.376 204.917L227.33 207.112C226.911 207.224 226.466 207.168 226.088 206.955C225.711 206.742 225.432 206.39 225.312 205.974L217.736 179.361C217.7 179.233 217.617 179.122 217.504 179.049C217.392 178.977 217.256 178.949 217.124 178.969C216.992 178.99 216.871 179.058 216.786 179.161C216.7 179.264 216.655 179.395 216.66 179.529L217.461 205.478C217.465 205.744 217.414 206.009 217.313 206.255C217.211 206.501 217.06 206.724 216.869 206.91C215.024 208.642 210.151 209.567 207.41 209.964C207.313 209.978 207.215 209.985 207.117 209.985Z" fill="#2F2E41"/>
<path d="M231.294 95.6747C230.018 94.3437 221.605 96.1729 219.737 98.1338L206.95 119.036L228.098 122.97L232.77 96.4125L231.294 95.6747Z" fill="#C2A410"/>
<path d="M225.752 148.779C225.296 148.78 224.844 148.704 224.413 148.556C223.184 148.135 221.679 147.694 219.937 147.246C212.312 145.285 209.62 139.007 211.935 128.586L211.994 128.322C214.169 118.437 218.267 109.077 224.057 100.774L224.954 99.4862C226.036 97.932 227.552 96.7302 229.311 96.0302C231.071 95.3303 232.998 95.1631 234.853 95.5493C238.284 96.257 240.126 97.2825 240.328 98.5976C240.725 101.178 233.061 132.37 229.748 145.661C229.526 146.553 229.012 147.344 228.287 147.909C227.563 148.474 226.67 148.781 225.752 148.779L225.752 148.779Z" fill="#2F2E41"/>
<path d="M199.482 144.775C199.283 144.775 199.084 144.744 198.894 144.684L196.423 143.893C196.167 143.811 195.932 143.677 195.731 143.499C195.53 143.321 195.369 143.103 195.257 142.859C195.146 142.615 195.086 142.35 195.083 142.082C195.079 141.814 195.132 141.548 195.237 141.301L208.352 110.517C210.865 104.645 215.258 99.7743 220.842 96.6717H220.842C220.923 96.6271 221.012 96.5997 221.104 96.5911C221.196 96.5824 221.289 96.5929 221.377 96.6216C221.457 96.6473 221.532 96.6897 221.595 96.7459C221.658 96.8021 221.709 96.8709 221.744 96.948C223.287 100.341 214.892 116.4 208.146 129.302C204.692 135.909 201.709 141.616 201.369 143.243C201.278 143.676 201.041 144.065 200.698 144.344C200.354 144.623 199.925 144.775 199.482 144.775Z" fill="#2F2E41"/>
<path d="M240.057 151.79C240.518 151.446 240.897 151.005 241.169 150.499C241.441 149.992 241.599 149.432 241.631 148.858C241.663 148.284 241.569 147.71 241.355 147.177C241.142 146.643 240.814 146.163 240.394 145.77L240.29 108.881L231.857 110.296L234.615 146.13C234.001 146.878 233.684 147.825 233.722 148.793C233.76 149.76 234.151 150.679 234.822 151.377C235.493 152.074 236.396 152.502 237.361 152.578C238.326 152.654 239.285 152.373 240.057 151.79Z" fill="#FFB8B8"/>
<path d="M233.191 118.033C232.773 118.033 232.371 117.874 232.066 117.588C231.761 117.302 231.576 116.911 231.548 116.494L230.567 101.61C230.474 100.178 230.953 98.7671 231.899 97.6878C232.845 96.6084 234.18 95.9482 235.612 95.8521C236.348 95.8037 237.085 95.9058 237.779 96.1523C238.474 96.3988 239.11 96.7845 239.65 97.2857C240.19 97.7869 240.623 98.393 240.92 99.067C241.218 99.741 241.375 100.469 241.381 101.205L241.514 116.293C241.518 116.728 241.348 117.148 241.043 117.459C240.738 117.77 240.323 117.948 239.887 117.954L233.211 118.033L233.191 118.033Z" fill="#2F2E41"/>
<path d="M227.157 92.082C232.122 92.082 236.147 88.0571 236.147 83.0922C236.147 78.1273 232.122 74.1024 227.157 74.1024C222.192 74.1024 218.167 78.1273 218.167 83.0922C218.167 88.0571 222.192 92.082 227.157 92.082Z" fill="#FFB8B8"/>
<path d="M234.632 89.3827C235.302 87.2489 235.918 84.733 234.591 82.9325C233.635 81.6351 231.918 81.1329 230.308 81.061C228.698 80.9891 227.084 81.2621 225.477 81.1343C223.871 81.0066 222.173 80.3725 221.357 78.9829C220.298 77.1809 221.195 74.6989 222.896 73.4854C224.597 72.2718 226.845 72.1024 228.915 72.3851C231.535 72.6961 233.998 73.7979 235.977 75.5437C237.901 77.32 239.156 79.8804 239.1 82.4988C239.044 85.1172 237.575 87.7247 235.235 88.9004" fill="#2F2E41"/>
<path d="M232.39 69.7392C230.238 69.0763 229.245 66.231 230.208 64.1951C231.17 62.1593 233.63 61.0932 235.864 61.3768C238.098 61.6603 240.066 63.0935 241.424 64.89C242.782 66.6865 243.601 68.828 244.284 70.974C244.966 73.1199 245.534 75.3123 246.466 77.3621C247.946 80.5115 250.228 83.2161 253.084 85.2042C255.94 87.1922 259.269 88.3936 262.736 88.6877C264.247 88.7971 265.815 88.7187 267.193 88.087C268.57 87.4553 269.725 86.1817 269.879 84.6743C270.663 90.0288 267.548 95.7194 262.615 97.9444C257.682 100.169 251.355 98.7381 247.86 94.6064C244.445 90.5687 243.916 84.8682 243.998 79.5805C244.02 78.1304 244.074 76.653 243.673 75.2593C243.273 73.8655 242.325 72.5403 240.944 72.0976C239.829 71.7405 238.623 71.9979 237.48 72.2511C236.338 72.5043 235.125 72.7481 234.019 72.3663C232.913 71.9846 232.022 70.7269 232.468 69.645" fill="#2F2E41"/>
<path d="M267.957 217.416H171.327C171.23 217.416 171.137 217.377 171.069 217.308C171 217.24 170.961 217.147 170.961 217.05C170.961 216.952 171 216.859 171.069 216.791C171.137 216.722 171.23 216.684 171.327 216.684H267.957C268.054 216.684 268.147 216.722 268.215 216.791C268.284 216.859 268.323 216.952 268.323 217.05C268.323 217.147 268.284 217.24 268.215 217.308C268.147 217.377 268.054 217.416 267.957 217.416Z" fill="#CCCCCC"/>
</g>
<defs>
<clipPath id="clip0_115_269">
<rect width="270" height="217.416" fill="white"/>
</clipPath>
</defs>
</svg>
