<svg width="245" height="35" viewBox="0 0 245 35" fill="none" xmlns="http://www.w3.org/2000/svg">
<path d="M17.5 3.90594L20.7438 11.705L21.0957 12.551L22.0089 12.6242L30.4287 13.2992L24.0137 18.7943L23.3179 19.3904L23.5305 20.2815L25.4904 28.4978L18.2819 24.0949L17.5 23.6173L16.7181 24.0949L9.50961 28.4978L11.4695 20.2815L11.6821 19.3904L10.9863 18.7943L4.57128 13.2992L12.9911 12.6242L13.9043 12.551L14.2562 11.705L17.5 3.90594Z" fill="#F1C644" stroke="#F1C644" stroke-width="3"/>
<path d="M70 3.90594L73.2438 11.705L73.5957 12.551L74.5089 12.6242L82.9287 13.2992L76.5137 18.7943L75.8179 19.3904L76.0305 20.2815L77.9904 28.4978L70.7819 24.0949L70 23.6173L69.2181 24.0949L62.0096 28.4978L63.9695 20.2815L64.1821 19.3904L63.4863 18.7943L57.0713 13.2992L65.4911 12.6242L66.4043 12.551L66.7562 11.705L70 3.90594Z" fill="#F1C644" stroke="#F1C644" stroke-width="3"/>
<path d="M122.5 3.90594L125.744 11.705L126.096 12.551L127.009 12.6242L135.429 13.2992L129.014 18.7943L128.318 19.3904L128.531 20.2815L130.49 28.4978L123.282 24.0949L122.5 23.6173L121.718 24.0949L114.51 28.4978L116.469 20.2815L116.682 19.3904L115.986 18.7943L109.571 13.2992L117.991 12.6242L118.904 12.551L119.256 11.705L122.5 3.90594Z" fill="#F1C644" stroke="#F1C644" stroke-width="3"/>
<path d="M175 3.90594L178.244 11.705L178.596 12.551L179.509 12.6242L187.929 13.2992L181.514 18.7943L180.818 19.3904L181.031 20.2815L182.99 28.4978L175.782 24.0949L175 23.6173L174.218 24.0949L167.01 28.4978L168.969 20.2815L169.182 19.3904L168.486 18.7943L162.071 13.2992L170.491 12.6242L171.404 12.551L171.756 11.705L175 3.90594Z" fill="#F1C644" stroke="#F1C644" stroke-width="3"/>
<path d="M227.5 3.90594L230.744 11.705L231.096 12.551L232.009 12.6242L240.429 13.2992L234.014 18.7943L233.318 19.3904L233.531 20.2815L235.49 28.4978L228.282 24.0949L227.5 23.6173L226.718 24.0949L219.51 28.4978L221.469 20.2815L221.682 19.3904L220.986 18.7943L214.571 13.2992L222.991 12.6242L223.904 12.551L224.256 11.705L227.5 3.90594Z" fill="#F1C644" stroke="#F1C644" stroke-width="3"/>
</svg>
