<svg width="161" height="23" viewBox="0 0 161 23" fill="none" xmlns="http://www.w3.org/2000/svg">
<path d="M10.9787 16.4075L11.2394 16.8342L10.9787 16.4075L5.50575 19.7504L6.99378 13.5122C7.08078 13.1475 6.95641 12.7647 6.67162 12.5208L1.80111 8.34864L8.19375 7.83614C8.56754 7.80618 8.89315 7.56961 9.03715 7.22337L11.5 1.30198L13.9628 7.22337C14.1069 7.56961 14.4325 7.80618 14.8063 7.83614L21.1989 8.34864L16.3284 12.5208C16.0436 12.7647 15.9192 13.1475 16.0062 13.5122L17.4942 19.7504L12.0213 16.4075C11.7012 16.212 11.2988 16.212 10.9787 16.4075Z" fill="#D1560F" stroke="#D1560F"/>
<path d="M45.4787 16.4075L45.7394 16.8342L45.4787 16.4075L40.0058 19.7504L41.4938 13.5122C41.5808 13.1475 41.4564 12.7647 41.1716 12.5208L36.3011 8.34864L42.6937 7.83614C43.0675 7.80618 43.3931 7.56961 43.5372 7.22337L46 1.30198L48.4628 7.22337C48.6069 7.56961 48.9325 7.80618 49.3063 7.83614L55.6989 8.34864L50.8284 12.5208C50.5436 12.7647 50.4192 13.1475 50.5062 13.5122L51.9942 19.7504L46.5213 16.4075C46.2012 16.212 45.7988 16.212 45.4787 16.4075Z" fill="#D1560F" stroke="#D1560F"/>
<path d="M79.9787 16.4075L80.2394 16.8342L79.9787 16.4075L74.5058 19.7504L75.9938 13.5122C76.0808 13.1475 75.9564 12.7647 75.6716 12.5208L70.8011 8.34864L77.1937 7.83614C77.5675 7.80618 77.8931 7.56961 78.0372 7.22337L80.5 1.30198L82.9628 7.22337C83.1069 7.56961 83.4325 7.80618 83.8063 7.83614L90.1989 8.34864L85.3284 12.5208C85.0436 12.7647 84.9192 13.1475 85.0062 13.5122L86.4942 19.7504L81.0213 16.4075C80.7012 16.212 80.2988 16.212 79.9787 16.4075Z" fill="#D1560F" stroke="#D1560F"/>
<path d="M114.479 16.4075L114.739 16.8342L114.479 16.4075L109.006 19.7504L110.494 13.5122C110.581 13.1475 110.456 12.7647 110.172 12.5208L105.301 8.34864L111.694 7.83614C112.068 7.80618 112.393 7.56961 112.537 7.22337L115 1.30198L117.463 7.22337C117.607 7.56961 117.932 7.80618 118.306 7.83614L124.699 8.34864L119.828 12.5208C119.544 12.7647 119.419 13.1475 119.506 13.5122L120.994 19.7504L115.521 16.4075C115.201 16.212 114.799 16.212 114.479 16.4075Z" fill="#D1560F" stroke="#D1560F"/>
<path d="M148.979 16.4075L149.239 16.8342L148.979 16.4075L143.506 19.7504L144.994 13.5122C145.081 13.1475 144.956 12.7647 144.672 12.5208L139.801 8.34864L146.194 7.83614C146.568 7.80618 146.893 7.56961 147.037 7.22337L149.5 1.30198L151.963 7.22337C152.107 7.56961 152.432 7.80618 152.806 7.83614L159.199 8.34864L154.328 12.5208C154.044 12.7647 153.919 13.1475 154.006 13.5122L155.494 19.7504L150.021 16.4075C149.701 16.212 149.299 16.212 148.979 16.4075Z" fill="white"/>
<path d="M148.979 16.4075L149.239 16.8342L148.979 16.4075L143.506 19.7504L144.994 13.5122C145.081 13.1475 144.956 12.7647 144.672 12.5208L139.801 8.34864L146.194 7.83614C146.568 7.80618 146.893 7.56961 147.037 7.22337L149.5 1.30198L151.963 7.22337C152.107 7.56961 152.432 7.80618 152.806 7.83614L159.199 8.34864L154.328 12.5208C154.044 12.7647 153.919 13.1475 154.006 13.5122L155.494 19.7504L150.021 16.4075C149.701 16.212 149.299 16.212 148.979 16.4075Z" fill="#D1560F"/>
<path d="M148.979 16.4075L149.239 16.8342L148.979 16.4075L143.506 19.7504L144.994 13.5122C145.081 13.1475 144.956 12.7647 144.672 12.5208L139.801 8.34864L146.194 7.83614C146.568 7.80618 146.893 7.56961 147.037 7.22337L149.5 1.30198L151.963 7.22337C152.107 7.56961 152.432 7.80618 152.806 7.83614L159.199 8.34864L154.328 12.5208C154.044 12.7647 153.919 13.1475 154.006 13.5122L155.494 19.7504L150.021 16.4075C149.701 16.212 149.299 16.212 148.979 16.4075Z" stroke="#D1560F"/>
</svg>
